<svg xmlns="http://www.w3.org/2000/svg" width="74.701" height="81.492" viewBox="0 0 74.701 81.492">
  <g id="git" transform="translate(-1)">
    <path id="Path_5" data-name="Path 5" d="M34.055,5.827a26.517,26.517,0,0,1-9.786,2.146C14.609,2.333,1.5,8.211,1.5,20.564h0c0,4.6,2.907,10.917,7.45,12.462v.183c-3.375,1.511-4.309,9.205.18,11.969v.183C4.229,46.994,1,50.142,1,55.578c0,9.368,8.76,11.969,16.431,11.969,9.341,0,16.288-3.4,16.288-13.827,0-12.825-18.135-8.095-18.135-15.062,0-2.455,1.294-3.4,3.535-3.874,9.918-1.864,13.966-11.772,11.4-18.77a33.52,33.52,0,0,0,3.535-1Zm-16.8,44.535v0c3.053,0,7.4.547,7.4,4.547,0,3.966-3.5,4.784-6.771,4.784-3.107,0-7.776-.492-7.776-4.584C10.12,51.055,14.069,50.363,17.251,50.363Zm-.574-23.555v0c-3.949,0-5.62-2.363-5.62-6.146,0-8.968,10.954-8.876,10.954-.088,0,3.691-1.44,6.238-5.334,6.238Z" transform="translate(0 13.945)" fill="#fff"/>
    <path id="Path_6" data-name="Path 6" d="M39.318,49.657V40.744a9.688,9.688,0,0,1-5.26,1.511c-3.321,0-3.915-3.277-3.915-5.969V19.716c5.694,0,9.161.183,9.161.183V11.254H30.144a52.282,52.282,0,0,1,.268-7.494H20.229a44.579,44.579,0,0,1,.268,7.494H16.188V19.9a14.226,14.226,0,0,1,4.309-.183V19.9h-.088V35.848c0,7.912,1.131,15.589,10.737,15.589a17.325,17.325,0,0,0,8.173-1.779Z" transform="translate(36.383 9.007)" fill="#fff"/>
    <path id="Path_7" data-name="Path 7" d="M17.861,0a6.446,6.446,0,0,0-6.193,6.676,6.426,6.426,0,0,0,6.193,6.587c3.463,0,6.068-3.182,6.068-6.587S21.413,0,17.861,0Z" transform="translate(25.555)" fill="#fff"/>
    <path id="Path_8" data-name="Path 8" d="M12.016,5.957c.323,2.689.289,36.329,0,39.619h9.969c-.289-3.27-.323-36.964,0-39.619Z" transform="translate(26.389 14.27)" fill="#fff"/>
  </g>
</svg>
