<svg xmlns="http://www.w3.org/2000/svg" width="106.953" height="104.316" viewBox="0 0 106.953 104.316">
  <path id="iconmonstr-github-1" d="M53.477,0a53.482,53.482,0,0,0-16.9,104.221c2.669.495,3.534-1.163,3.534-2.571V91.694c-14.875,3.235-17.973-6.31-17.973-6.31-2.433-6.181-5.94-7.825-5.94-7.825-4.853-3.32.37-3.249.37-3.249,5.37.374,8.2,5.513,8.2,5.513C29.528,88,37.269,85.634,40.321,84.266a11.345,11.345,0,0,1,3.4-7.148c-11.876-1.359-24.363-5.945-24.363-26.431a20.7,20.7,0,0,1,5.508-14.354c-.553-1.35-2.384-6.792.521-14.153,0,0,4.492-1.435,14.711,5.481a50.687,50.687,0,0,1,26.778,0c10.21-6.916,14.693-5.481,14.693-5.481,2.91,7.366,1.078,12.808.526,14.153a20.642,20.642,0,0,1,5.5,14.354c0,20.539-12.509,25.063-24.417,26.386,1.916,1.658,3.668,4.911,3.668,9.9V101.65c0,1.422.856,3.093,3.57,2.567A53.487,53.487,0,0,0,53.477,0Z" fill="#f2f2f2"/>
</svg>
