<svg xmlns="http://www.w3.org/2000/svg" width="106.95" height="104.32" viewBox="0 0 106.95 104.32">
  <path id="iconmonstr-linkedin-4" d="M53.475,0C23.943,0,0,23.355,0,52.16s23.943,52.16,53.475,52.16S106.95,80.965,106.95,52.16,83.007,0,53.475,0ZM44.562,69.547H35.65V43.467h8.912ZM40.106,39.594a4.821,4.821,0,1,1,4.9-4.82A4.862,4.862,0,0,1,40.106,39.594Zm35.65,29.953h-8.9V57.111c0-8.176-8.921-7.485-8.921,0V69.547H49.019V43.467h8.912v4.751c3.886-7.024,17.825-7.546,17.825,6.729Z" fill="#f2f2f2"/>
</svg>
