<svg xmlns="http://www.w3.org/2000/svg" width="143.699" height="150.307" viewBox="0 0 143.699 150.307">
  <g id="Group_3" data-name="Group 3" transform="translate(-728.768 -70.002)">
    <g id="Trucker_Hat" data-name="Trucker Hat" transform="translate(728.768 70.002)">
      <g id="blue-front" transform="translate(0 0)">
        <path id="Path_42" data-name="Path 42" d="M701.551,101.662a5.822,5.822,0,0,0-9.925,3.737h11.641a5.911,5.911,0,0,0-1.716-3.737Z" transform="translate(-625.587 -97.925)" fill="#12436f" fill-rule="evenodd"/>
        <path id="Path_43" data-name="Path 43" d="M593.815,194.219c29.225-19.729,69.662-22.976,102.259-10.11l19.422,10.11c1.961-17.523,2.083-47.913-14.337-61.147a102.528,102.528,0,0,0-44.85-20.955l-.551-.061v15.134a1.134,1.134,0,0,1-2.267,0V112.057c-6.312.981-26.223,5.576-45.4,21.016-16.724,13.54-16.112,44.665-14.274,61.146Z" transform="translate(-582.797 -103.173)" fill="#0c2340" fill-rule="evenodd"/>
        <path id="Path_44" data-name="Path 44" d="M756.727,188.436l14.826,7.659c1.961-17.523,2.083-47.913-14.337-61.147a105.193,105.193,0,0,0-34.984-18.564c34.372,14.4,54.283,49.076,34.495,72.052Z" transform="translate(-638.854 -105.049)" fill="#112e53" fill-rule="evenodd"/>
        <path id="Path_45" data-name="Path 45" d="M649.134,227.56c21.936,0,43.687,5.944,61.821,18.688l6.987,5.392-.8,6.985-4.106,4.9-.184.122c-6.862,3.983-16.542-1.225-22.3-5.269-22-15.318-60.9-15.318-82.837,0-4.167,2.94-9.374,5.819-14.46,6.555-4.962.674-9.435-.736-11.7-5.453-.8-1.654-1.961-6.126-1.041-7.9l.122-.246,6.678-5.146C604.532,233.565,628,227.56,649.134,227.56Z" transform="translate(-577.277 -153.241)" fill="#0c2340" fill-rule="evenodd"/>
        <path id="Path_46" data-name="Path 46" d="M707.293,244.865a95.473,95.473,0,0,1,15.5,8.884l6.987,5.392-.8,6.985-4.106,4.9-.184.122c-6.862,3.983-16.542-1.225-22.3-5.269-22-15.318-60.9-15.318-82.837,0a40.627,40.627,0,0,1-12.071,6.065c48.219-41.6,88.779-8.823,97.725-13.357,8.333-4.166,3.185-12.132,2.084-13.724Z" transform="translate(-589.114 -160.742)" fill="#102e43" fill-rule="evenodd"/>
        <path id="Path_47" data-name="Path 47" d="M585.871,204.839l-5.147,3.921-1.225.98-.245-1.47a127,127,0,0,1-1.84-20.376c-.149-17.641,3.827-36.9,17.525-46.714a115.432,115.432,0,0,1,13.846-8.577l.736-.429.857,1.471-.673.428q-4.779,3.125-9.191,6.618c-16.788,13.539-17.033,44.114-14.7,63.658ZM695.358,140.69q-4.41-3.493-9.191-6.618l-.673-.428.8-1.41.737.368a110.87,110.87,0,0,1,13.846,8.577c19.3,13.785,19.3,46.2,15.684,67.09l-.245,1.409L710,204.839l.061-.491c2.329-19.484,2.084-50.119-14.705-63.658Z" transform="translate(-576.077 -111.893)" fill="#0c2340" fill-rule="evenodd"/>
        <path id="Path_48" data-name="Path 48" d="M778.059,140.737q-4.41-3.493-9.191-6.618l-.673-.428.8-1.41.737.368a110.87,110.87,0,0,1,13.846,8.577c19.3,13.785,19.3,46.2,15.684,67.09l-.245,1.409-6.309-4.84.061-.491c2.329-19.484,2.084-50.119-14.705-63.658Z" transform="translate(-658.778 -111.94)" fill="#0c2340" fill-rule="evenodd"/>
        <path id="Path_49" data-name="Path 49" d="M579.153,192.569l.8-.674h.061l.735-.614.245-.184.614-.428.306-.306.674-.429.184-.184.674-.49.306-.184.184-.123c-1.042-8.516-2.206-24.691,1.164-39.518,2.206-9.741,6.372-18.87,13.847-24.937a109.294,109.294,0,0,1,9.252-6.679,122.026,122.026,0,0,0-13.786,8.517c-22.485,16.175-16.911,56.981-15.317,66.294Zm67.762-96.193a7.658,7.658,0,0,1,5.332,2.206,7.551,7.551,0,0,1,2.207,5.33v.122A126.824,126.824,0,0,1,700.711,124.5c25.733,18.5,16.6,66.906,15.93,70.276a14.654,14.654,0,0,1-.8,7.291h0a11.078,11.078,0,0,1-4.657,5.637,13.21,13.21,0,0,1-8.578,1.348c-4.044-.551-9.007-2.573-14.889-6.679-10.781-7.535-25.793-11.335-40.806-11.335s-30.021,3.8-40.866,11.335c-5.82,4.106-10.783,6.128-14.888,6.679a13.021,13.021,0,0,1-8.516-1.348,10.9,10.9,0,0,1-4.718-5.637,14.62,14.62,0,0,1-.735-7.291c-.673-3.432-9.864-51.773,15.93-70.276a126.393,126.393,0,0,1,46.258-20.464v-.122a7.532,7.532,0,0,1,7.535-7.536Zm1.655,8.945-.551-.061v15.134a1.1,1.1,0,0,1-1.1,1.1,1.113,1.113,0,0,1-1.163-1.1V105.26l-.612.061a103.64,103.64,0,0,0-44.789,20.955c-6.985,5.7-10.906,14.4-13.05,23.711-3.125,13.725-2.206,28.859-1.225,37.436l.245-.122.184-.122.674-.491.367-.184.674-.428.184-.184.8-.491.124-.061c.612-.367,1.164-.734,1.777-1.042l.306-.184.614-.367.491-.306.551-.307.367-.184.674-.367h.061l.8-.429.184-.122.245-.122.8-.367.858-.489.122-.061.245-.122.8-.368.919-.428.063-.063.98-.429.061-.061.98-.428h.061l1.041-.489h0l1.042-.429h0l1.041-.428h.061l1.042-.429c.98-.367,1.96-.734,3-1.1l.184-.061.122-.061.918-.306.061-.061.981-.306h.062l1.1-.368h0l.98-.306.122-.061.736-.245.428-.122.8-.184L615.3,174l.613-.185.551-.122.736-.184.245-.122.981-.245h.122l.8-.185.49-.122.674-.184.306-.061.858-.184.367-.061.552-.184.673-.122.491-.122.551-.061.613-.122.612-.124.614-.122.367-.061.8-.122.367-.061.674-.122.673-.122h.246l.429-.122H630l.736-.124.612-.061.368-.061.734-.122.491-.061.8-.061.245-.061.918-.061.307-.061.736-.061h.367l.245-.061h.367l.736-.061.245-.061.919-.061h.061l.919-.061h.184l1.042-.061h.8l.368-.061h1.225l1.1-.061h4.719l1.1.061h1.288l1.041.061h.368l.92.061h0l.98.061.245.061.918.061h.247l.367.061.673.061h.429l.8.061.306.061.857.061.061.061.8.061h.125l.8.122.367.061.8.061.308.061.857.124.306.061.673.061.614.122.612.122.428.061.8.122.308.061.734.122.551.124.551.122.492.061.673.184.428.061.858.184h.124l.98.245.184.061.857.184.369.061.857.246h.123l.918.245.306.122.8.184.306.122.857.185.245.122.737.184.367.122c.612.184,1.224.367,1.9.551l.245.122.918.307.92.306.123.061.245.061q2.02.736,4.044,1.47l1.041.429h0l1.043.428h.061l.979.429.061.061.979.428c1.41.612,2.758,1.225,4.105,1.9h.061l.859.489.122.061.8.367.306.184.612.307.369.245.612.306.428.246.673.367.245.122.859.489.061.061c.98.552,1.961,1.164,2.879,1.716l.061.061.735.489.308.184.8.491.061.061.306.184a134.276,134.276,0,0,0,.122-29.225c-1.47-12.254-5.391-24.631-14.459-31.921a102.392,102.392,0,0,0-44.789-20.955h-.058Zm2.023-5.146a5.289,5.289,0,0,0-3.677-1.531,5.441,5.441,0,0,0-3.736,1.531,5.718,5.718,0,0,0-1.532,3.431,29.435,29.435,0,0,1,5.086-.858h.368a29.783,29.783,0,0,1,5.023.858,5.089,5.089,0,0,0-1.532-3.431ZM709.9,188.953l.184.124.245.184.736.551.122.061.857.614v.061l.857.612.061.061c.614.491,1.165.919,1.716,1.348v.061c1.655-9.312,7.229-50.119-15.318-66.294a121.362,121.362,0,0,0-13.725-8.517c3.065,2.022,6.128,4.228,9.252,6.679,9.56,7.781,13.725,20.709,15.257,33.391a137.564,137.564,0,0,1-.245,31.064Zm-62.986-17.032h-1.163l-1.164.061h-1.164l-1.1.061h-.061l-1.1.061H641.1l-1.1.061h0l-1.1.061h-.061l-1.1.061-.858.061-.306.061H636.5l-1.1.122h-.061l-1.041.122h-.061l-1.1.122h-.061l-1.042.122H631.9l-1.042.185H630.8l-1.041.122-.122.061-1.042.122h-.122l-.98.184-.673.122-.491.061-.122.061-.981.185c-1.777.306-3.492.734-5.207,1.1l-.368.122-.184.061-.919.246h-.184l-.919.245c-1.776.489-3.553,1.042-5.269,1.593l-.246.061-.184.061-.857.307h-.062l-.919.306-.124.061-.98.367h-.122c-.614.246-1.288.491-1.9.736l-.245.122c-1.041.367-2.022.736-3,1.164l-.122.061-.858.368-.184.122c-1.041.428-2.022.918-3.064,1.409h0l-.918.428-.123.061-.918.491h-.061c-1.041.551-2.022,1.042-3,1.593h0a87.538,87.538,0,0,0-7.6,4.717l-.122.061-.674.491h-.061l-.061.061h-.061c-2.145,1.531-4.289,3.185-6.312,4.9a12.494,12.494,0,0,0,.674,5.882,8.408,8.408,0,0,0,3.737,4.473,10.6,10.6,0,0,0,7.046,1.1c3.737-.49,8.394-2.39,13.908-6.249,11.213-7.842,26.714-11.764,42.152-11.764s30.942,3.921,42.154,11.764c5.513,3.86,10.109,5.759,13.846,6.249a10.784,10.784,0,0,0,7.107-1.1,8.4,8.4,0,0,0,3.677-4.412l.061-.061a12.508,12.508,0,0,0,.612-5.882h0l-.8-.673-.061-.061c-1.777-1.471-3.616-2.819-5.454-4.167h0l-.061-.061h-.061c-1.471-1.042-2.94-2.022-4.473-2.941l-.122-.061c-.918-.613-1.9-1.164-2.818-1.715h-.061c-.921-.552-1.9-1.1-2.94-1.594l-.061-.061-.921-.489h-.061c-2.022-1.042-4.044-1.961-6.064-2.88l-.186-.061-.918-.367h0l-.98-.429-.184-.061c-1.042-.367-2.021-.8-3-1.164l-.245-.061a18.322,18.322,0,0,0-1.961-.673h-.061c-.674-.246-1.347-.491-2.084-.735l-.245-.061c-.612-.184-1.286-.367-1.961-.551v-.061l-.918-.246-.183-.061-.918-.245-.186-.061-.306-.061c-.98-.245-2.022-.491-3-.736l-.981-.245-.123-.061h-.122l-1.041-.245-.981-.184h-.123l-.122-.061c-.734-.122-1.408-.246-2.144-.368l-.979-.184-.123-.061-1.043-.184h-.122l-.98-.122-.122-.061-1.165-.122-1.041-.185h-.061l-1.041-.122h-.125l-1.041-.122h-.061l-1.1-.122h-.063l-1.1-.122h-.061l-.245-.061-.859-.061-1.1-.061h-.061l-1.1-.061h-.059l-1.1-.061h0l-1.163-.061h0l-1.165-.061h-1.165l-1.1-.061h-1.167Z" transform="translate(-575.057 -96.376)"/>
        <path id="Path_50" data-name="Path 50" d="M588.579,255.136l.061.122-.307.122Zm-1.9,1.594-.306.061.306-.184Zm127.868.551,1.043.367a5.882,5.882,0,0,1-.367,1.1l-1.043-.368.367-1.1Zm-.8,2.083,1.04.489q-.274.552-.551,1.1l-.98-.552a8.015,8.015,0,0,0,.49-1.042Zm-1.041,1.961.918.612a3.717,3.717,0,0,1-.734.98l-.859-.735a4.752,4.752,0,0,0,.676-.857Zm-1.411,1.592.735.858a4.015,4.015,0,0,1-1.041.735l-.551-.98a4.343,4.343,0,0,0,.857-.614Zm-1.777,1.041.367,1.1a8.69,8.69,0,0,1-1.224.245l-.184-1.1c.367-.122.673-.122,1.041-.245Zm-2.084.245-.061,1.164a7.518,7.518,0,0,1-1.163-.122l.184-1.1a5.941,5.941,0,0,0,1.041.061ZM705.3,263.9l-.245,1.1a6.415,6.415,0,0,1-1.163-.306l.367-1.1a6.64,6.64,0,0,0,1.041.306Zm-2.084-.735-.428,1.1a8.671,8.671,0,0,0-1.1-.49l.551-1.042c.306.122.673.306.979.428Zm-2.02-.919-.554.981-.98-.552.551-.981Zm-1.961-1.163-.614.98-.979-.612.673-.981Zm-1.9-1.227-.612.981-.981-.673.673-.919Zm-1.9-1.286-.612.98-.981-.612.614-.98Zm-1.961-1.225-.551.98-.98-.612.551-.981Zm-1.961-1.164-.551.98-1.04-.551.551-.98Zm-2.084-1.1-.49,1.041-1.041-.551.49-1.042Zm-2.083-1.042-.429,1.042-1.041-.49.429-1.041Zm-2.081-.918-.431,1.042-1.04-.429.428-1.042Zm-2.145-.858-.431,1.042-1.041-.429.429-1.041Zm-2.144-.858-.367,1.1-1.1-.367.367-1.1Zm-2.206-.736-.367,1.1-1.043-.368.306-1.1Zm-2.206-.673-.306,1.1-1.1-.307.306-1.1Zm-2.206-.614-.306,1.1-1.1-.306.306-1.1Zm-2.267-.551-.245,1.1-1.1-.245.245-1.1Zm-2.206-.491-.245,1.1-1.1-.245.184-1.1Zm-2.267-.428-.245,1.1-1.1-.184.184-1.164Zm-2.328-.428-.122,1.164L664,248.458l.184-1.1Zm-2.267-.307-.122,1.164-1.165-.184.122-1.1Zm-2.267-.245-.123,1.1-1.165-.061.123-1.164Zm-2.328-.245-.061,1.164-1.165-.061.061-1.164Zm-2.267-.122-.061,1.1h-1.165l.061-1.164Zm-2.328-.123-.061,1.164-1.1-.061v-1.1Zm-2.328-.061v1.164h-1.1v-1.164Zm-2.267.061v1.1l-1.164.061v-1.164h1.164Zm-2.328.061.061,1.1-1.164.061-.061-1.164Zm-2.267.062.061,1.164-1.164.061-.061-1.1Zm-2.328.183.122,1.164-1.164.122-.122-1.164Zm-2.267.245.122,1.1-1.164.184-.122-1.164Zm-2.328.308.184,1.1-1.164.185-.122-1.164Zm-2.267.306.184,1.1-1.1.245-.245-1.164Zm-2.267.367.184,1.164-1.1.184-.245-1.1Zm-2.267.49.245,1.1-1.1.245-.306-1.1Zm-2.267.491.306,1.1-1.1.306-.306-1.1Zm-2.206.613.307,1.1-1.1.307-.306-1.1Zm-2.267.612.367,1.1-1.1.306-.367-1.042Zm-2.144.674.307,1.1-1.042.367-.367-1.1Zm-2.206.8.367,1.041-1.041.429-.429-1.1Zm-2.145.8.429,1.1-1.041.428-.491-1.042Zm-2.144.919.491,1.042-1.042.489-.491-1.042Zm-2.083.981.491,1.04-1.041.491-.49-1.042Zm-2.083,1.04.551.982-1.041.551-.551-.98Zm-2.022,1.1.551.98-.98.552-.551-.98Zm-2.023,1.163.614.982-.919.612-.613-.981Zm-1.9,1.288.612.918-.919.674-.674-.919Zm-1.9,1.287.612.98-.98.612-.614-.98Zm-1.9,1.225.552.98-.981.551-.552-.981Zm-2.022,1.041.552,1.042c-.368.184-.736.367-1.042.49l-.49-1.041Zm-2.021.919.428,1.1c-.367.124-.735.246-1.164.368l-.306-1.1c.367-.122.735-.245,1.042-.367Zm-2.084.612.245,1.164c-.429.061-.858.122-1.225.184L594.4,264.2a6.8,6.8,0,0,0,1.1-.184Zm-2.144.184-.061,1.164a7.357,7.357,0,0,1-1.225-.184l.245-1.1a6.047,6.047,0,0,0,1.042.122Zm-2.022-.49-.49,1.041a3.578,3.578,0,0,1-1.042-.613l.673-.918a3.906,3.906,0,0,0,.858.49Zm-1.654-1.164-.858.8c-.245-.307-.552-.614-.8-.919l.919-.674c.245.245.491.552.735.8Zm-1.288-1.716-1.041.552c-.184-.306-.368-.674-.552-1.042l1.042-.491a7.854,7.854,0,0,0,.551.981Zm-.979-2.021-1.1.429-.368-1.1,1.1-.367Zm-3-.429.367-.122c.123.245.246.8.368,1.042l-1.041.428a4.9,4.9,0,0,1-.307-.857Zm.122,2.389,1.042-.429a7.326,7.326,0,0,0,.49.981l-1.041.551a8.495,8.495,0,0,1-.491-1.1Zm1.1,2.145.981-.612a4.287,4.287,0,0,0,.613.857l-.919.735c-.245-.367-.49-.673-.674-.98Zm1.472,1.9.8-.8a9.445,9.445,0,0,0,.8.735l-.735.858a5.316,5.316,0,0,1-.857-.8Zm1.837,1.531.613-.981a6.613,6.613,0,0,0,.918.491l-.428,1.042a4.682,4.682,0,0,1-1.1-.552Zm2.267.981.307-1.1c.368.061.674.122,1.041.184l-.122,1.164a8.7,8.7,0,0,1-1.225-.245Zm2.39.306v-1.164a6.67,6.67,0,0,0,1.1-.061l.122,1.164a7.819,7.819,0,0,1-1.225.061Zm2.451-.245-.245-1.164a6.415,6.415,0,0,0,1.041-.245l.307,1.1c-.368.122-.735.184-1.1.306Zm2.267-.675-.367-1.04c.306-.122.674-.246,1.041-.429l.428,1.1Zm2.145-.857-.49-1.041,1.041-.491.49,1.041Zm2.083-1.041L602,263.775l.98-.551.614.979Zm2.022-1.225-.614-.98.919-.614.674.981Zm1.9-1.287-.612-.919.919-.674.674.98Zm1.9-1.225-.612-.981.979-.613.614.98Zm1.961-1.227-.614-.98.981-.552.614.981Zm1.961-1.1-.552-1.041,1.042-.491.49.98Zm2.021-1.042-.49-1.042.98-.491.49,1.042Zm2.022-.981-.428-1.041,1.041-.491.428,1.1Zm2.083-.919-.429-1.042,1.1-.428.429,1.04Zm2.144-.8-.429-1.1,1.1-.367.368,1.041Zm2.144-.8-.367-1.042,1.1-.368.368,1.041Zm2.145-.675-.306-1.1,1.1-.306.306,1.1Zm2.206-.613-.306-1.1,1.1-.307.306,1.1Zm2.206-.612-.245-1.1,1.1-.245.245,1.1Zm2.206-.489-.245-1.1,1.164-.245.184,1.1Zm2.267-.429-.245-1.164,1.164-.184.184,1.1Zm2.205-.429-.184-1.1,1.164-.184.184,1.1Zm2.267-.307-.184-1.163,1.164-.124.122,1.1Zm2.267-.306-.122-1.1,1.164-.122.061,1.1Zm2.267-.184-.122-1.164,1.164-.122.061,1.164Zm2.267-.184-.061-1.164,1.164-.061.061,1.164Zm2.267-.123-.061-1.164h1.164l.061,1.164Zm2.267-.061v-1.164h1.163v1.164Zm2.267,0,.061-1.1h1.165l-.063,1.164a7.041,7.041,0,0,0-1.164-.061Zm2.328.061V248.7a7.821,7.821,0,0,0,1.165.061l-.063,1.164a6.659,6.659,0,0,0-1.1-.061Zm2.267.123.061-1.164,1.163.061-.122,1.164Zm2.267.184.122-1.164,1.1.122-.122,1.1Zm2.267.184.122-1.1,1.165.122-.186,1.1Zm2.267.306.122-1.163,1.165.184-.185,1.1Zm2.267.307.183-1.1,1.1.184-.186,1.1Zm2.205.429.245-1.164,1.1.245-.186,1.1Zm2.267.429.245-1.1,1.1.246-.248,1.1Zm2.205.489.245-1.1,1.165.306-.308,1.1Zm2.206.612.306-1.1,1.1.306-.306,1.1Zm2.206.613.306-1.1,1.1.367-.367,1.1Zm2.145.675.367-1.042,1.1.367-.428,1.1Zm2.144.8.367-1.1,1.1.43-.428,1.1Zm2.084.8.49-1.042,1.041.429-.429,1.1Zm2.083.919.49-1.041,1.04.49-.49,1.042Zm2.081.981.492-1.042,1.041.551-.49.98Zm2.022,1.042.553-.98.98.551-.551.981Zm1.961,1.1.612-.98.981.612-.612.98Zm1.961,1.227.612-.981.981.674-.675.919Zm1.9,1.287.612-.98.921.673-.614.919Zm1.9,1.225.612-.919.979.552-.612.979Zm2.021,1.225.551-1.042.98.551-.489,1.041Zm2.081,1.041.492-1.041.979.428-.429,1.1Zm2.145.857.369-1.04a7.4,7.4,0,0,0,1.1.306l-.306,1.1Zm2.328.675.184-1.164a3.486,3.486,0,0,0,1.1.184l-.122,1.164c-.429-.061-.8-.122-1.165-.184Zm2.328.245v-1.164a6.664,6.664,0,0,0,1.1-.061l.123,1.164c-.367,0-.8.061-1.227.061Zm2.453-.306-.308-1.1c.367-.122.675-.245.981-.367l.49,1.042a8.894,8.894,0,0,1-1.163.428Zm2.267-.981-.614-.981c.245-.184.551-.367.859-.612l.734.858c-.307.245-.673.49-.98.735Zm1.837-1.531-.8-.8c.245-.306.429-.551.673-.858l.921.674a6.211,6.211,0,0,1-.8.981Zm1.471-1.961-.982-.614c.186-.306.369-.612.554-.918l.98.489c-.185.368-.368.736-.551,1.042Zm1.1-2.084-1.041-.49.429-.98,1.042.367Zm.062-2.451-.306-.122v-.122Zm-3.982-3.063-.183-.061v-.061Zm-.49,1.041,1.1.368c-.123.306-.245.734-.367,1.1l-1.1-.429c.122-.306.245-.735.369-1.042Zm-.736,2.084,1.043.491c-.184.367-.369.673-.553,1.041l-.979-.551c.184-.306.306-.612.49-.98Zm-1.1,1.9.979.674a12.47,12.47,0,0,1-.857.918l-.8-.8a2.774,2.774,0,0,0,.675-.8Zm-1.471,1.348.551,1.042a5.07,5.07,0,0,1-1.286.367l-.183-1.1a4.046,4.046,0,0,0,.918-.306Zm-1.9.306-.122,1.164c-.367-.061-.8-.122-1.224-.184l.306-1.164a2.86,2.86,0,0,0,1.041.184Zm-2.084-.428-.367,1.041c-.367-.122-.8-.245-1.1-.368l.429-1.1a5.275,5.275,0,0,0,1.04.429Zm-2.083-.858-.49,1.041c-.367-.184-.735-.367-1.041-.551l.551-.98a7.274,7.274,0,0,1,.979.489Zm-1.959-1.1-.614,1.042c-.306-.184-.673-.428-.979-.612l.612-.981a4.976,4.976,0,0,0,.982.551Zm-1.961-1.164-.614.98c-.307-.245-.674-.428-.98-.673l.673-.919c.306.184.614.428.921.612Zm-1.838-1.287-.673.919-.921-.614.612-.98Zm-1.961-1.287-.612.98-.981-.613.614-.98Zm-1.961-1.164-.612.98-.98-.552.551-1.042Zm-2.022-1.164-.551,1.041-1.041-.552.551-.98ZM689.3,252.44l-.49,1.042-1.041-.491.49-1.041Zm-2.083-.98-.49,1.041-1.04-.428.489-1.042Zm-2.145-.919-.428,1.1-1.041-.429.428-1.1Zm-2.142-.8-.369,1.041-1.1-.367.367-1.1Zm-2.145-.8-.369,1.1-1.1-.367.367-1.1,1.1.367Zm-2.206-.735-.367,1.1-1.043-.306.306-1.1Zm-2.205-.674-.306,1.164-1.1-.307.306-1.1Zm-2.267-.552-.245,1.1-1.1-.306.245-1.1Zm-2.206-.551-.245,1.1-1.165-.245.245-1.1Zm-2.267-.491-.245,1.164-1.1-.245.183-1.1Zm-2.267-.428-.183,1.164-1.165-.184.183-1.164Zm-2.267-.368-.184,1.164-1.1-.185.122-1.1Zm-2.328-.307-.122,1.164-1.1-.122.122-1.164Zm-2.267-.245-.122,1.164-1.1-.122.061-1.164Zm-2.328-.184-.061,1.164-1.1-.122.061-1.1Zm-2.267-.184-.061,1.164-1.166-.061.061-1.1Zm-2.328-.061v1.164l-1.165-.061v-1.1h1.165Zm-2.267-.062v1.164h-1.165v-1.164Zm-2.328.062v1.1l-1.1.061-.061-1.164h1.165Zm-2.328.061.061,1.1c-.368,0-.735.061-1.1.061l-.061-1.164Zm-2.267.122.061,1.1-1.165.122-.061-1.164Zm-2.328.122.122,1.164-1.165.122-.061-1.164Zm-2.267.245.122,1.164a7.533,7.533,0,0,0-1.165.122l-.122-1.164c.368-.061.8-.061,1.165-.122Zm-2.328.307.183,1.1-1.1.185-.185-1.164Zm-2.267.306.184,1.164-1.1.184-.185-1.164Zm-2.267.429.245,1.1-1.164.184-.185-1.1Zm-2.267.428.245,1.1-1.1.245-.246-1.1Zm-2.267.491.306,1.1-1.1.306-.307-1.1Zm-2.205.552.306,1.1-1.1.307-.306-1.1Zm-2.206.612.306,1.1-1.1.367-.306-1.1Zm-2.206.736.306,1.041c-.306.122-.674.245-1.042.367l-.367-1.042a7.767,7.767,0,0,1,1.1-.367Zm-2.206.734.367,1.041-1.042.429-.428-1.1Zm-2.144.8.428,1.1-1.1.367-.429-1.042Zm-2.145.858.429,1.1-1.041.428-.491-1.041Zm-2.144.981.491,1.041-.98.491-.552-1.042Zm-2.084.98.552,1.042-1.042.552-.49-1.041Zm-2.021,1.1.551.981-.98.613-.551-1.042Zm-2.022,1.165.612.98-.98.613-.612-.98Zm-1.961,1.226.674.98-.981.614-.614-.98Zm-1.9,1.287.673.98-.98.612-.612-.981Zm-1.9,1.287.612.918-.979.613-.552-.98Zm-1.9,1.1.49,1.042-1.04.489-.491-1.041Zm-2.022.981.429,1.041a8.111,8.111,0,0,1-1.1.429l-.367-1.1c.367-.122.673-.245,1.041-.368Zm-2.084.674.246,1.1a8.7,8.7,0,0,1-1.225.245l-.061-1.164a3.4,3.4,0,0,0,1.041-.184Zm-2.082.184-.122,1.1a3.116,3.116,0,0,1-1.287-.367l.49-1.042a5.344,5.344,0,0,0,.919.306Zm-1.717-.857-.8.857a10.723,10.723,0,0,1-.8-.918l.919-.674a3.7,3.7,0,0,0,.673.735Zm-1.286-1.654-.981.552c-.184-.368-.367-.674-.551-1.042l1.041-.491c.184.307.306.674.49.981Zm-.858-2.022-1.1.368c-.122-.307-.245-.735-.367-1.1l1.1-.306c.122.367.245.674.367,1.041Z" transform="translate(-578.847 -160.414)" fill="#123562"/>
        <path id="Path_51" data-name="Path 51" d="M766.139,266.149c.369.122.8.184,1.165.306l-.122.184-1.043-.489Zm2.267.551a8.754,8.754,0,0,0,1.226.245l-.489.8-.981-.551Zm4.717.306a3.512,3.512,0,0,0,.859-.306l.489.306-.612.98-.981-.612Zm1.961-.919c.367-.245.675-.489.982-.734l.306.184-.673.919Zm18.5-.367,1.043.367a5.877,5.877,0,0,1-.367,1.1l-1.043-.368.367-1.1Zm-.8,2.083,1.04.489q-.275.552-.551,1.1l-.979-.552a8.029,8.029,0,0,0,.49-1.042Zm-1.041,1.961.918.612a3.72,3.72,0,0,1-.734.98l-.859-.735a4.756,4.756,0,0,0,.676-.857Zm-1.411,1.592.735.858a4.015,4.015,0,0,1-1.041.735l-.551-.98a4.342,4.342,0,0,0,.857-.614Zm-1.777,1.041.367,1.1a8.679,8.679,0,0,1-1.224.245l-.184-1.1c.367-.122.673-.122,1.041-.245Zm-2.084.245-.061,1.164a7.518,7.518,0,0,1-1.163-.122l.184-1.1a5.942,5.942,0,0,0,1.041.061Zm-2.144-.306-.245,1.1a6.413,6.413,0,0,1-1.163-.306l.367-1.1a6.641,6.641,0,0,0,1.041.306Zm-2.084-.735-.428,1.1a8.675,8.675,0,0,0-1.1-.49l.551-1.042c.306.122.673.306.979.428Zm-2.02-.919-.554.981-.979-.552.551-.981Zm-1.961-1.163-.614.98-.979-.612.673-.981Zm-1.9-1.227-.612.981-.981-.673.673-.919Zm-6.25,0,.612-.979.981.612-.612.98Zm1.961,1.227.612-.981.981.674-.675.919Zm1.9,1.287.612-.98.921.673-.614.919Zm1.9,1.225.612-.919.979.552-.612.98Zm2.021,1.225.551-1.042.98.551-.489,1.041Zm2.081,1.041.492-1.041.979.428-.429,1.1Zm2.145.857.369-1.04a7.409,7.409,0,0,0,1.1.306l-.306,1.1Zm2.328.675.184-1.164a3.486,3.486,0,0,0,1.1.184l-.122,1.164c-.429-.061-.8-.122-1.165-.184Zm2.328.245v-1.164a6.664,6.664,0,0,0,1.1-.061l.123,1.164c-.367,0-.8.061-1.227.061Zm2.453-.306-.308-1.1c.367-.122.675-.245.981-.367l.489,1.042a8.89,8.89,0,0,1-1.163.428Zm2.267-.981-.614-.981c.245-.184.551-.367.859-.612l.734.858c-.307.245-.673.49-.98.735Zm1.837-1.531-.8-.8c.245-.306.429-.551.673-.858l.921.674a6.21,6.21,0,0,1-.8.981Zm1.471-1.961-.982-.614c.186-.306.369-.612.553-.918l.98.49c-.185.368-.368.736-.551,1.042Zm1.1-2.084-1.041-.49.429-.98,1.042.367Zm.062-2.451-.306-.122v-.122ZM792,263.7l-.183-.061v-.061Zm-.49,1.041,1.1.368c-.123.306-.245.734-.367,1.1l-1.1-.429c.122-.306.245-.735.369-1.042Zm-.736,2.084,1.043.491c-.184.367-.369.673-.553,1.041l-.98-.551c.184-.306.306-.612.49-.98Zm-1.1,1.9.979.674a12.483,12.483,0,0,1-.857.918l-.8-.8a2.775,2.775,0,0,0,.675-.8ZM788.2,270.07l.551,1.042a5.069,5.069,0,0,1-1.286.367l-.184-1.1a4.044,4.044,0,0,0,.918-.306Zm-1.9.306-.122,1.164c-.367-.061-.8-.122-1.224-.184l.306-1.164a2.859,2.859,0,0,0,1.041.184Zm-2.084-.428-.367,1.041c-.367-.122-.8-.245-1.1-.368l.429-1.1a5.272,5.272,0,0,0,1.04.429Zm-2.083-.858-.49,1.041c-.367-.184-.735-.367-1.041-.551l.551-.98a7.274,7.274,0,0,1,.979.489Zm-1.959-1.1-.614,1.042c-.306-.184-.673-.428-.98-.612l.612-.981a4.976,4.976,0,0,0,.982.551Zm-1.961-1.164-.614.98c-.306-.245-.674-.428-.979-.673l.673-.919c.306.184.614.428.921.612Z" transform="translate(-657.887 -168.853)" fill="#123562"/>
        <path id="Path_52" data-name="Path 52" d="M595.952,191.894l1.1-.122.122,1.164-1.164.122Zm119.23.981-1.1-.122.122-1.164,1.1.122Zm.246-2.328-1.165-.061.122-1.164,1.165.122Zm.184-2.267-1.165-.061.122-1.164,1.1.061Zm.184-2.328-1.165-.061.061-1.1,1.165.061Zm.122-2.267-1.165-.061.061-1.164,1.1.061v1.164Zm.062-2.328h-1.165l.061-1.164,1.165.061Zm.061-2.267h-1.165v-1.164h1.165Zm0-2.328h-1.165v-1.1l1.165-.061Zm0-2.267h-1.165v-1.164h1.1Zm-.061-2.328-1.165.061-.061-1.164,1.165-.061Zm-.123-2.267-1.165.061a7.117,7.117,0,0,0-.061-1.164l1.165-.061c0,.367.061.735.061,1.164Zm-.122-2.328-1.165.061-.122-1.1,1.165-.122Zm-.245-2.267-1.1.061-.122-1.1,1.1-.122Zm-.245-2.328-1.1.122-.183-1.1,1.165-.184Zm-.308-2.267-1.1.122-.184-1.1,1.164-.184Zm-.306-2.267-1.163.184-.184-1.164,1.1-.184Zm-.429-2.267-1.163.184-.184-1.1,1.1-.245Zm-.489-2.267-1.1.245-.306-1.1,1.1-.306Zm-.551-2.267-1.1.307-.306-1.1,1.1-.306Zm-.675-2.205-1.041.307-.367-1.042,1.1-.368Zm-.674-2.206-1.1.368-.369-1.042,1.043-.429Zm-.857-2.205-1.043.429-.428-1.042,1.041-.429Zm-.859-2.144-1.04.49-.49-.981,1.041-.551Zm-1.04-2.083-.982.551-.551-.981.981-.551Zm-1.1-2.022-.979.612-.612-.98.98-.613Zm-1.286-1.961-.92.674-.673-.919.981-.735Zm-1.349-1.9-.918.735-.675-.858.859-.8Zm-1.468-1.777-.859.8-.8-.858.857-.8Zm-1.655-1.654-.8.8-.8-.735.734-.858Zm-1.716-1.532-.735.858-.92-.735.737-.857Zm-1.838-1.47-.673.858-.918-.674.735-.919Zm-1.775-1.409-.736.918-.857-.735.673-.919Zm-1.839-1.41-.675.919-.98-.612.673-.98Zm-1.9-1.287-.674.919-.92-.673.612-.919Zm-1.9-1.348-.673.98-.921-.613.615-.98Zm-1.961-1.225-.612.981-.979-.612.612-.981a8.433,8.433,0,0,0,.98.613Zm-1.961-1.164-.612.98-.98-.613.551-.98Zm-2.02-1.164-.553.98-.98-.551.551-.982Zm-2.022-1.1-.554.981-.979-.491.49-1.04Zm-2.023-1.1-.553,1.042-.98-.489.49-1.042Zm-2.083-.98-.489,1.041-1.043-.489.49-1.041Zm-2.084-.98-.49,1.041-1.043-.428.49-1.042Zm-2.144-.919-.428,1.042L673.457,115l.428-1.042Zm-2.144-.858-.429,1.042-1.043-.368.431-1.1Zm-2.145-.8-.367,1.041-1.1-.367.369-1.1Zm-2.145-.8-.367,1.1-1.1-.368.367-1.1a5.856,5.856,0,0,0,1.1.367Zm-2.205-.674-.367,1.042-1.1-.307.369-1.1Zm-2.206-.674-.306,1.1-1.1-.306.245-1.1Zm-2.267-.612-.245,1.1-1.1-.245.245-1.1Zm-2.206-.552-.245,1.164-1.1-.245.184-1.164ZM657.343,109l-.245,1.1-1.1-.184.184-1.1c.367.061.734.122,1.163.184Zm-2.451-.184.122,1.164a8.245,8.245,0,0,0-1.1.184L653.728,109c.368-.061.8-.122,1.164-.184Zm-2.328.429.245,1.1c-.367.061-.735.184-1.1.245l-.246-1.1c.368-.061.735-.184,1.1-.245Zm-2.267.489.307,1.165-1.1.245-.307-1.1Zm-2.206.614.307,1.1-1.1.306-.306-1.1Zm-2.206.613.307,1.1-1.1.307-.306-1.1Zm-2.205.674.368,1.1-1.1.368-.367-1.1Zm-2.2.735.367,1.1-1.041.367-.429-1.041Zm-2.145.8.367,1.1-1.041.429-.428-1.1Zm-2.144.857.428,1.1a5.334,5.334,0,0,0-1.041.429l-.49-1.1Zm-2.144.919.491,1.041-1.043.428-.49-1.041Zm-2.084.919.491,1.041-1.042.49-.491-1.042Zm-2.084.981.491,1.042-1.042.551-.491-1.041Zm-2.082,1.042.551,1.04-1.042.552-.489-1.042Zm-2.022,1.1.551,1.041-.98.551-.551-1.042Zm-2.022,1.164.612.98-.979.552-.614-.98Zm-1.961,1.164.614.98-.981.612-.612-.981Zm-1.96,1.225.612.98-.919.612-.673-.981Zm-1.9,1.287.613.919-.919.673-.674-.98Zm-1.9,1.287.674.919-.98.673-.674-.919Zm-1.9,1.348.735.919-.918.736-.735-.919Zm-1.838,1.409.736.919-.919.674-.674-.858Zm-1.777,1.471.735.857-.858.735-.734-.858Zm-1.776,1.471.8.858-.858.8-.8-.857Zm-1.654,1.654.8.736-.734.858-.858-.736Zm-1.594,1.716.919.735-.736.858-.918-.674Zm-1.409,1.838.919.673-.613.919-.98-.614Zm-1.287,1.96.979.613-.612.918-.98-.551ZM602.631,140l.98.491-.491,1.041-1.041-.551Zm-1.042,2.023.981.489-.429,1.042-1.042-.429Zm-.981,2.144,1.042.428-.428,1.042-1.042-.428Zm-.858,2.144,1.1.368-.367,1.1-1.1-.367Zm-.735,2.205,1.1.368-.367,1.042-1.1-.307Zm-.674,2.206,1.1.307-.306,1.1-1.1-.307Zm-.614,2.205,1.1.306-.245,1.1-1.1-.246Zm-.49,2.267,1.1.245-.184,1.1-1.164-.185Zm-.428,2.267,1.1.245-.184,1.1-1.164-.185Zm-.43,2.267,1.164.184-.184,1.165-1.1-.185Zm-.306,2.328,1.164.122-.184,1.1-1.1-.122Zm-.245,2.267,1.1.122-.122,1.1-1.1-.061Zm-.246,2.267,1.165.122-.122,1.164-1.1-.122Zm-.184,2.328,1.164.061-.061,1.164-1.164-.061Zm-.122,2.328h1.164l-.061,1.164-1.1-.061v-1.1Zm-.061,2.267,1.164.061-.061,1.1h-1.1Zm-.062,2.328h1.164v1.1h-1.164Zm0,2.267h1.164v1.164h-1.1Zm.062,2.328,1.164-.061v1.164l-1.1.061Zm.061,2.267h1.164l.061,1.1-1.164.061Zm.122,2.328,1.164-.061.062,1.1-1.165.122Zm.122,2.267,1.165-.061.061,1.164-1.1.061Zm.185,2.328,1.164-.122.061,1.164-1.1.061Z" transform="translate(-583.769 -101.767)" fill="#123562"/>
      </g>
      <g id="UC_Irvine_Anteaters_logo" transform="translate(53.9 30.434)">
        <path id="Path_130" data-name="Path 130" d="M5.286,0V3.953H7.347v7.394a19.022,19.022,0,0,0-2.124.915C1.906,13.982,0,16.462,0,19.1s1.906,5.115,5.224,6.836a15.635,15.635,0,0,0,2.124.914v2.914c0,5.3,4.139,8.99,10.075,8.99h1.612c5.937,0,10.075-3.7,10.075-8.99V27.483a24.149,24.149,0,0,0,6.882-2.558l-2.7-3.643c-.031.016-.047.031-.078.046a18.7,18.7,0,0,1-4.092,1.519V15.361a18.7,18.7,0,0,1,4.092,1.519c.093.047.17.093.263.14l2.713-3.627a23.6,23.6,0,0,0-7.068-2.666V3.953h2.061V0H22.553V3.953h2.062v6.061q-1.976-.209-4.139-.279v-.9h2.077V4.9H13.92V8.836H16v.9a37.264,37.264,0,0,0-4.139.434V3.953h2.062V0H5.285ZM20.476,14.23c1.519.062,2.9.171,4.139.31v9.114c-1.24.155-2.62.264-4.139.31V14.23ZM16,14.261v9.688a30.738,30.738,0,0,1-4.139-.512v-8.68A28.3,28.3,0,0,1,16,14.261Zm-8.649,2v5.72c-.016-.031-.031-.047-.062-.047-1.922-.992-2.79-2.139-2.79-2.821,0-.7.868-1.845,2.79-2.821.015-.016.047-.015.062-.031Zm4.5,11.749a33.9,33.9,0,0,0,4.138.434v.915H13.92v3.953h8.634V29.358H20.476v-.884q2.186-.07,4.139-.279v1.566c0,2.17-1.473,4.5-5.58,4.5H17.423c-4.108,0-5.58-2.325-5.58-4.5V28.009Z" transform="translate(0)" fill="#ffc72c"/>
        <path id="Path_131" data-name="Path 131" d="M10.487,4.6V7.111h2.061v7.843a21.755,21.755,0,0,1,2.883-.729v-7.1h2.062V4.6H10.487Zm17.268,0V7.111h2.077v6.867q1.511.186,2.883.465V7.126h2.062V4.6ZM19.121,9.5v2.511H21.2V33.973H19.121v2.511h7.022V33.973H24.065V12.009h2.077V9.5Zm5.751,4.929V17.31c6.4.217,10.385,1.38,12.85,2.6l1.752-2.34c-3.519-1.891-8.417-2.945-14.6-3.147Zm-4.48.015a25.75,25.75,0,0,0-10.385,2.434C6.953,18.442,5.2,20.673,5.2,22.983s1.752,4.542,4.79,6.107a26.008,26.008,0,0,0,10.385,2.434V28.64h.015C12.021,28.175,8.1,25.106,8.1,22.983s3.921-5.177,12.292-5.658V14.442Zm9.44,4.077v8.913c1.07-.155,2.015-.326,2.883-.527V19.046c-.868-.2-1.814-.372-2.883-.527Zm-14.4.31a18.628,18.628,0,0,0-2.883.93v6.464a18.091,18.091,0,0,0,2.883.93V18.829Zm22.1,7.316c-2.48,1.209-6.433,2.31-12.664,2.527v2.883c6.076-.2,10.912-1.224,14.416-3.053l-1.751-2.356ZM12.564,31.028v2.635c0,4.821,3.813,8.184,9.269,8.184h1.612c5.456,0,9.269-3.364,9.269-8.184V31.539c-.93.171-1.876.326-2.883.45v1.658c0,3.906-3.441,5.3-6.386,5.3H21.833c-4.712,0-6.386-2.852-6.386-5.3V31.756a27.944,27.944,0,0,1-2.883-.729Z" transform="translate(-4.395 -3.886)" fill="#0c2340"/>
      </g>
    </g>
    <g id="Glasses" transform="translate(738.788 182.973)">
      <g id="Path_132" data-name="Path 132" transform="translate(4.494 0)" fill="none">
        <path d="M18.668,0A18.668,18.668,0,1,1,0,18.668,18.668,18.668,0,0,1,18.668,0Z" stroke="none"/>
        <path d="M 18.66825866699219 4 C 14.75022888183594 4 11.06670951843262 5.525768280029297 8.296237945556641 8.296237945556641 C 5.525768280029297 11.06670951843262 4 14.75022888183594 4 18.66825866699219 C 4 22.58629989624023 5.525768280029297 26.26981735229492 8.296237945556641 29.0402889251709 C 11.06669807434082 31.81075859069824 14.75022888183594 33.33651733398438 18.66825866699219 33.33651733398438 C 22.58629989624023 33.33651733398438 26.26981735229492 31.81075859069824 29.0402889251709 29.0402889251709 C 31.81075859069824 26.26981735229492 33.33651733398438 22.58629989624023 33.33651733398438 18.66825866699219 C 33.33651733398438 14.75022888183594 31.81075859069824 11.06669807434082 29.0402889251709 8.296237945556641 C 26.26981735229492 5.525768280029297 22.58629989624023 4 18.66825866699219 4 M 18.66825866699219 0 C 28.97845840454102 0 37.33651733398438 8.358068466186523 37.33651733398438 18.66825866699219 C 37.33651733398438 28.97845840454102 28.97845840454102 37.33651733398438 18.66825866699219 37.33651733398438 C 8.358068466186523 37.33651733398438 0 28.97845840454102 0 18.66825866699219 C 0 8.358068466186523 8.358068466186523 0 18.66825866699219 0 Z" stroke="none" fill="#3c3c3c"/>
      </g>
      <g id="Ellipse_19" data-name="Ellipse 19" transform="translate(82.212 0.336)" fill="none" stroke="#3c3c3c" stroke-width="4">
        <circle cx="18.5" cy="18.5" r="18.5" stroke="none"/>
        <circle cx="18.5" cy="18.5" r="16.5" fill="none"/>
      </g>
      <line id="Line_4" data-name="Line 4" x2="38.719" transform="translate(42.525 19.014)" fill="none" stroke="#3c3c3c" stroke-width="4"/>
      <line id="Line_7" data-name="Line 7" x1="4.149" transform="translate(119.615 19.014)" fill="none" stroke="#3c3c3c" stroke-width="4"/>
      <line id="Line_8" data-name="Line 8" x1="4.149" transform="translate(0 19.014)" fill="none" stroke="#3c3c3c" stroke-width="4"/>
    </g>
  </g>
</svg>
