<svg xmlns="http://www.w3.org/2000/svg" width="362.447" height="376.438" viewBox="0 0 362.447 376.438">
  <g id="my-logo" transform="translate(-773.216 -142.532)">
    <g id="hat" transform="translate(773.216 142.532)">
      <g id="blue-front" transform="translate(0 0)">
        <path id="Path_42" data-name="Path 42" d="M716.659,104.27a14.686,14.686,0,0,0-25.033,9.427h29.362a14.91,14.91,0,0,0-4.328-9.427Z" transform="translate(-525.058 -94.843)" fill="#0c2340" fill-rule="evenodd"/>
        <path id="Path_43" data-name="Path 43" d="M595.191,319.293c73.713-49.761,175.707-57.952,257.924-25.5l48.987,25.5c4.946-44.2,5.254-120.849-36.162-154.229-48.528-39.1-97.669-50.073-113.124-52.853l-1.39-.154v38.171c0,3.711-5.717,3.711-5.717,0V112.057c-15.92,2.473-66.142,14.064-114.514,53.009-42.183,34.153-40.64,112.657-36,154.227Z" transform="translate(-567.399 -89.65)" fill="#0c2340" fill-rule="evenodd"/>
        <path id="Path_44" data-name="Path 44" d="M809.237,298.118l37.4,19.319c4.945-44.2,5.254-120.849-36.162-154.229a265.326,265.326,0,0,0-88.239-46.825c86.7,36.315,136.917,123.784,87,181.734Z" transform="translate(-511.929 -87.794)" fill="#112e53" fill-rule="evenodd"/>
        <path id="Path_45" data-name="Path 45" d="M754.106,227.56c55.328,0,110.19,14.992,155.929,47.136l17.623,13.6-2.012,17.617-10.355,12.362-.463.309c-17.309,10.047-41.725-3.091-56.248-13.289-55.481-38.637-153.613-38.637-208.937,0-10.51,7.416-23.644,14.678-36.472,16.534-12.516,1.7-23.8-1.856-29.516-13.755-2.009-4.171-4.945-15.452-2.626-19.934l.309-.62,16.844-12.979c43.425-31.835,102.611-46.982,155.925-46.982Z" transform="translate(-572.861 -40.107)" fill="#0c2340" fill-rule="evenodd"/>
        <path id="Path_46" data-name="Path 46" d="M859.23,244.865a240.809,240.809,0,0,1,39.093,22.408l17.623,13.6-2.012,17.617-10.356,12.362-.463.309c-17.308,10.047-41.725-3.091-56.248-13.289-55.481-38.637-153.613-38.637-208.937,0-8.962,6.182-19.472,12.362-30.446,15.3,121.62-104.933,223.926-22.254,246.49-33.69,21.018-10.507,8.034-30.6,5.256-34.616Z" transform="translate(-561.149 -32.685)" fill="#112e53" fill-rule="evenodd"/>
        <path id="Path_47" data-name="Path 47" d="M598.751,315.456l-12.983,9.89-3.091,2.472-.617-3.708a320.338,320.338,0,0,1-4.64-51.395c-.377-44.494,9.653-93.068,44.2-117.825a291.148,291.148,0,0,1,34.924-21.634l1.856-1.083,2.162,3.711-1.7,1.08q-12.054,7.881-23.181,16.691c-42.344,34.15-42.961,111.266-37.089,160.563Zm276.156-161.8q-11.124-8.809-23.182-16.691l-1.7-1.08,2.006-3.557,1.859.929a279.637,279.637,0,0,1,34.924,21.634C937.5,189.66,937.5,271.414,928.376,324.11l-.619,3.554-15.913-12.207.153-1.237c5.874-49.144,5.257-126.413-37.091-160.563Z" transform="translate(-574.048 -81.022)" fill="#0c2340" fill-rule="evenodd"/>
        <path id="Path_48" data-name="Path 48" d="M793.074,153.609q-11.124-8.809-23.182-16.691l-1.7-1.08,2.006-3.557,1.859.929a279.641,279.641,0,0,1,34.924,21.634c48.678,34.77,48.678,116.523,39.559,169.219l-.619,3.554L830.012,315.41l.153-1.237c5.874-49.144,5.257-126.413-37.091-160.563Z" transform="translate(-492.215 -80.975)" fill="#0c2340" fill-rule="evenodd"/>
        <path id="Path_49" data-name="Path 49" d="M585.388,339l2.008-1.7h.154l1.855-1.548.617-.463,1.548-1.08.771-.772,1.7-1.083.463-.463,1.7-1.235.772-.463.463-.311c-2.628-21.48-5.564-62.277,2.937-99.676,5.564-24.57,16.071-47.6,34.926-62.9a275.684,275.684,0,0,1,23.336-16.846,307.77,307.77,0,0,0-34.772,21.483c-56.713,40.8-42.654,143.722-38.633,167.21ZM756.3,96.376a19.316,19.316,0,0,1,13.448,5.564,19.045,19.045,0,0,1,5.566,13.443v.309c24.878,5.41,71.394,19.009,116.673,51.616,64.9,46.67,41.879,168.757,40.18,177.256a36.962,36.962,0,0,1-2.006,18.389h0a27.942,27.942,0,0,1-11.746,14.218c-5.717,3.245-12.83,4.634-21.637,3.4-10.2-1.39-22.717-6.49-37.555-16.846-27.194-19.006-65.058-28.59-102.923-28.59s-75.72,9.584-103.074,28.59c-14.681,10.355-27.2,15.455-37.552,16.846-8.654,1.235-15.915-.154-21.48-3.4a27.492,27.492,0,0,1-11.9-14.218,36.878,36.878,0,0,1-1.855-18.389c-1.7-8.656-24.879-130.587,40.18-177.256C665.9,134.7,712.262,121.1,737.3,115.692v-.309A19,19,0,0,1,756.3,96.376Zm4.174,22.561-1.39-.154v38.171a2.77,2.77,0,0,1-2.784,2.784,2.808,2.808,0,0,1-2.934-2.784V118.783l-1.545.154c-15.3,2.781-64.753,14.064-112.97,52.853-17.617,14.372-27.507,36.315-32.915,59.8-7.882,34.617-5.564,72.79-3.091,94.424l.617-.309.463-.309,1.7-1.237.926-.463,1.7-1.08.463-.463,2.006-1.237.312-.154c1.545-.926,2.936-1.852,4.481-2.628l.772-.463,1.548-.926,1.237-.773,1.389-.775.926-.463,1.7-.926h.154l2.009-1.083.463-.309.617-.309,2.01-.926,2.165-1.235.309-.154.617-.309,2.008-.929,2.319-1.08.159-.16,2.472-1.083.154-.154,2.472-1.08h.154l2.626-1.235h0l2.628-1.083h0l2.626-1.08h.154l2.628-1.083c2.472-.926,4.943-1.852,7.573-2.782l.463-.154.309-.154,2.316-.773.154-.154,2.474-.773h.156l2.779-.929h0l2.472-.773.309-.154,1.856-.617,1.08-.309,2.01-.463.772-.309,1.546-.466,1.391-.309,1.856-.463.617-.309,2.474-.617h.309l2.009-.466,1.235-.309,1.7-.463.772-.154,2.165-.463.926-.154,1.393-.463,1.7-.309,1.237-.309,1.391-.154,1.546-.309,1.545-.312,1.547-.309.926-.154,2.009-.309.926-.154,1.7-.309,1.7-.309h.62l1.082-.309h.772l1.856-.312,1.543-.154.929-.154,1.852-.309,1.237-.154,2.01-.154.617-.154,2.316-.154.774-.154,1.856-.154h.926l.617-.154h.926l1.856-.154.617-.154,2.319-.154h.154l2.319-.154h.463l2.628-.154h2.006l.929-.154h3.091l2.781-.154h11.9l2.779.154H768.2l2.625.154h.927l2.321.154h0l2.471.154.617.154,2.316.154h.623l.926.154,1.7.154H783.8l2.012.154.772.154,2.162.154.154.154,2.006.154h.314l2.008.309.926.154,2.006.154.777.154,2.162.312.772.154,1.7.154,1.549.309,1.545.309,1.08.154,2.008.309.777.154,1.852.309,1.39.312,1.391.309,1.24.154,1.7.463,1.08.154,2.163.463h.313l2.471.617.463.154,2.162.463.932.154,2.161.62h.31l2.316.617.772.309,2.012.463.772.309,2.162.466.619.309,1.858.463.926.309c1.545.463,3.088.926,4.793,1.389l.617.309,2.316.774,2.321.773.31.154.617.154q5.095,1.856,10.2,3.708l2.625,1.083h0l2.631,1.08h.154l2.471,1.083.154.154,2.471,1.08c3.555,1.545,6.958,3.091,10.354,4.793h.154l2.168,1.234.309.154,2.008.926.772.463,1.543.774.932.617,1.545.772,1.08.62,1.7.926.619.309,2.166,1.235.154.154c2.471,1.392,4.947,2.936,7.262,4.328l.154.154,1.853,1.235.776.463,2.008,1.237.154.154.772.463c1.852-17.463,3.711-45.436.309-73.713-3.707-30.908-13.6-62.126-36.469-80.514-48.214-38.945-97.821-50.227-112.97-52.853h-.146Zm5.1-12.98a13.341,13.341,0,0,0-9.275-3.862,13.723,13.723,0,0,0-9.424,3.862,14.422,14.422,0,0,0-3.865,8.655c11.283-2.319,12.673-2.165,12.829-2.165h.929c.154,0,1.39-.154,12.67,2.165a12.834,12.834,0,0,0-3.864-8.655ZM915.17,329.882l.463.311.619.463,1.857,1.389.309.154,2.162,1.548v.154l2.162,1.545.154.154c1.549,1.237,2.939,2.319,4.328,3.4v.154c4.174-23.489,18.234-126.413-38.637-167.21a306.111,306.111,0,0,0-34.617-21.483c7.731,5.1,15.455,10.664,23.336,16.846,24.112,19.626,34.617,52.233,38.483,84.223,3.71,30.753,1.389,60.888-.619,78.351ZM756.3,286.922h-2.934l-2.936.154H747.5l-2.782.154h-.154l-2.782.154h-.154l-2.782.154h0l-2.782.154H735.9l-2.782.154-2.165.154-.773.154h-.153l-2.782.309h-.154l-2.626.309h-.154l-2.782.309h-.154l-2.628.309h-.309l-2.628.466h-.154l-2.626.309-.309.154-2.628.309h-.309l-2.472.463-1.7.309-1.238.154-.309.154-2.474.466c-4.483.772-8.808,1.852-13.133,2.779l-.929.309-.463.154-2.318.62h-.463l-2.319.617c-4.48,1.235-8.962,2.628-13.289,4.017l-.62.154-.463.154-2.162.774h-.156l-2.318.773-.312.154-2.471.926h-.309c-1.548.622-3.248,1.239-4.793,1.856l-.617.309c-2.626.926-5.1,1.856-7.573,2.936l-.309.154-2.165.929-.463.309c-2.626,1.08-5.1,2.316-7.728,3.554h0l-2.315,1.08-.312.154-2.316,1.237h-.154c-2.626,1.389-5.1,2.628-7.573,4.017h0a220.777,220.777,0,0,0-19.163,11.9l-.309.154-1.7,1.239h-.154l-.154.154h-.153c-5.41,3.862-10.818,8.034-15.92,12.362a31.513,31.513,0,0,0,1.7,14.835,21.207,21.207,0,0,0,9.427,11.281c4.48,2.628,10.355,3.862,17.772,2.782,9.427-1.236,21.171-6.027,35.08-15.763,28.281-19.781,67.38-29.673,106.32-29.673s78.044,9.891,106.325,29.673c13.906,9.735,25.5,14.527,34.924,15.763,7.416,1.08,13.444-.154,17.926-2.782a21.186,21.186,0,0,0,9.274-11.127l.154-.154a31.548,31.548,0,0,0,1.545-14.835h0l-2.008-1.7-.154-.154c-4.483-3.711-9.12-7.11-13.756-10.51h0l-.154-.154h-.153c-3.711-2.628-7.416-5.1-11.283-7.419l-.309-.154c-2.316-1.546-4.793-2.936-7.108-4.325h-.154c-2.322-1.392-4.793-2.781-7.416-4.02l-.153-.154-2.322-1.235h-.154c-5.1-2.628-10.2-4.946-15.3-7.265l-.469-.154-2.315-.926h0l-2.471-1.083-.463-.154c-2.629-.926-5.1-2.008-7.576-2.936l-.617-.154a46.193,46.193,0,0,0-4.947-1.7h-.153c-1.7-.62-3.4-1.237-5.255-1.855l-.617-.154c-1.545-.463-3.244-.926-4.947-1.389v-.154l-2.315-.62-.463-.154-2.316-.619-.469-.154-.772-.154c-2.471-.619-5.1-1.237-7.57-1.856l-2.475-.617-.31-.154H819.2l-2.625-.617L814.1,292.8h-.31l-.309-.154c-1.852-.309-3.551-.62-5.408-.929l-2.471-.463-.31-.154-2.631-.463h-.309l-2.471-.309-.309-.154-2.939-.309-2.625-.466h-.154l-2.625-.309h-.314l-2.625-.309h-.154l-2.778-.309h-.16l-2.778-.309h-.154l-.617-.154-2.168-.154-2.779-.154h-.153l-2.785-.154h-.149l-2.784-.154h0l-2.934-.154h0l-2.939-.154h-2.938l-2.779-.154H756.3Z" transform="translate(-575.057 -96.376)"/>
        <path id="Path_50" data-name="Path 50" d="M595.854,271.923l.154.309-.775.309Zm-4.791,4.02-.772.154.772-.463Zm322.519,1.39,2.631.926a14.835,14.835,0,0,1-.926,2.785l-2.631-.929q.463-1.391.926-2.782Zm-2.006,5.254,2.623,1.235q-.692,1.393-1.389,2.785l-2.471-1.392a20.259,20.259,0,0,0,1.236-2.628Zm-2.625,4.947,2.315,1.545a9.38,9.38,0,0,1-1.852,2.472l-2.168-1.855a11.98,11.98,0,0,0,1.7-2.162Zm-3.558,4.017,1.853,2.165a10.127,10.127,0,0,1-2.625,1.853l-1.39-2.471a10.955,10.955,0,0,0,2.162-1.548Zm-4.481,2.626.926,2.782a21.9,21.9,0,0,1-3.088.617l-.463-2.782c.925-.309,1.7-.309,2.625-.617Zm-5.256.619-.154,2.936a18.971,18.971,0,0,1-2.934-.309l.463-2.782a14.991,14.991,0,0,0,2.625.154Zm-5.409-.773-.619,2.782a16.171,16.171,0,0,1-2.934-.773l.926-2.782a16.75,16.75,0,0,0,2.626.773Zm-5.256-1.855-1.08,2.782a21.875,21.875,0,0,0-2.779-1.235l1.39-2.628c.772.309,1.7.772,2.469,1.08Zm-5.094-2.319-1.4,2.475-2.471-1.392,1.391-2.473Zm-4.947-2.934-1.549,2.471-2.471-1.543,1.7-2.474Zm-4.791-3.094-1.545,2.474-2.475-1.7,1.7-2.319Zm-4.791-3.244-1.545,2.472-2.475-1.545,1.549-2.472Zm-4.947-3.091-1.389,2.472-2.471-1.543,1.391-2.474Zm-4.946-2.936-1.39,2.472-2.624-1.39,1.389-2.472Zm-5.256-2.782-1.235,2.626-2.625-1.389,1.236-2.628Zm-5.254-2.628-1.082,2.628-2.625-1.236,1.082-2.626Zm-5.25-2.315-1.087,2.628-2.624-1.083,1.08-2.628Zm-5.41-2.165-1.086,2.628-2.625-1.083,1.082-2.625ZM828.9,262.5l-.926,2.782-2.784-.926.926-2.782Zm-5.563-1.856-.924,2.785-2.63-.929.772-2.782Zm-5.564-1.7L817,261.727l-2.784-.775.772-2.779Zm-5.563-1.548-.772,2.782-2.784-.772.771-2.782Zm-5.717-1.389-.619,2.782-2.783-.619.617-2.781Zm-5.564-1.239-.619,2.782-2.784-.619.463-2.782Zm-5.719-1.08-.619,2.781-2.784-.463.463-2.936Zm-5.871-1.08-.309,2.936-2.939-.466.463-2.779Zm-5.719-.774-.309,2.936-2.939-.463.309-2.782Zm-5.717-.617-.31,2.782-2.939-.154.31-2.936Zm-5.873-.619-.154,2.936-2.939-.154.154-2.936Zm-5.719-.307-.154,2.781h-2.939l.154-2.936Zm-5.871-.31-.154,2.936-2.784-.154v-2.782h2.938Zm-5.873-.154v2.936h-2.781v-2.936Zm-5.717.154v2.782l-2.936.154v-2.936h2.936Zm-5.873.154.154,2.782-2.936.154-.154-2.936Zm-5.719.156.154,2.936-2.936.154-.154-2.782Zm-5.871.462.309,2.936-2.936.309-.309-2.936Zm-5.719.617.309,2.782-2.936.463-.309-2.936Zm-5.871.776.463,2.779-2.936.466-.309-2.936Zm-5.719.772.463,2.782-2.781.617-.619-2.936Zm-5.719.926.463,2.936-2.782.463-.617-2.782Zm-5.717,1.236.617,2.785-2.782.617L699.7,255.7Zm-5.719,1.237.772,2.782-2.782.772-.772-2.781Zm-5.563,1.546.773,2.779-2.782.775-.771-2.782Zm-5.719,1.545.926,2.782-2.782.772-.926-2.628Zm-5.408,1.7.773,2.782-2.628.926-.926-2.782Zm-5.564,2.008.926,2.626-2.625,1.083-1.083-2.782Zm-5.41,2.009,1.082,2.782-2.625,1.08-1.237-2.628Zm-5.409,2.319,1.237,2.628-2.628,1.235-1.237-2.628Zm-5.254,2.474,1.238,2.623-2.626,1.239-1.236-2.628Zm-5.253,2.623,1.389,2.476-2.626,1.389-1.39-2.472Zm-5.1,2.785,1.389,2.471-2.472,1.392-1.39-2.472Zm-5.1,2.934,1.548,2.476-2.319,1.545-1.546-2.473Zm-4.788,3.248,1.544,2.316-2.319,1.7-1.7-2.319Zm-4.791,3.245,1.543,2.472-2.471,1.545-1.548-2.472Zm-4.793,3.091,1.393,2.472-2.473,1.39-1.392-2.473Zm-5.1,2.626,1.393,2.628c-.929.463-1.856.926-2.628,1.235l-1.235-2.626Zm-5.1,2.319,1.08,2.779c-.926.311-1.855.62-2.937.929l-.771-2.782c.926-.309,1.853-.617,2.628-.926Zm-5.255,1.543.619,2.936c-1.082.154-2.165.309-3.091.463l-.309-2.936a17.166,17.166,0,0,0,2.781-.463Zm-5.409.464-.154,2.936a18.542,18.542,0,0,1-3.091-.463l.617-2.782a15.248,15.248,0,0,0,2.628.309Zm-5.1-1.236-1.235,2.626a9.024,9.024,0,0,1-2.628-1.546l1.7-2.316a9.853,9.853,0,0,0,2.165,1.236Zm-4.172-2.936-2.163,2.01c-.619-.774-1.393-1.548-2.01-2.319l2.319-1.7c.617.617,1.237,1.392,1.855,2.009Zm-3.248-4.328-2.625,1.392c-.463-.772-.929-1.7-1.392-2.628L594,283.822a19.846,19.846,0,0,0,1.389,2.474Zm-2.469-5.1-2.782,1.082-.929-2.782,2.781-.926Zm-7.573-1.082.926-.309c.311.617.62,2.011.929,2.628l-2.626,1.08a12.336,12.336,0,0,1-.775-2.162Zm.309,6.026,2.628-1.082a18.484,18.484,0,0,0,1.235,2.474l-2.625,1.389a21.442,21.442,0,0,1-1.237-2.781Zm2.781,5.41,2.474-1.545a10.821,10.821,0,0,0,1.546,2.162l-2.319,1.855c-.619-.926-1.236-1.7-1.7-2.472Zm3.712,4.791,2.006-2.01a23.827,23.827,0,0,0,2.009,1.855l-1.855,2.165a13.4,13.4,0,0,1-2.161-2.009Zm4.634,3.862,1.546-2.473a16.687,16.687,0,0,0,2.316,1.237l-1.08,2.628a11.807,11.807,0,0,1-2.782-1.392Zm5.717,2.474.773-2.782c.929.154,1.7.309,2.626.463l-.309,2.936a21.963,21.963,0,0,1-3.091-.617Zm6.027.772v-2.936a16.822,16.822,0,0,0,2.782-.154l.309,2.936a19.717,19.717,0,0,1-3.091.154Zm6.182-.617-.617-2.936a16.165,16.165,0,0,0,2.626-.617l.773,2.782c-.927.309-1.853.463-2.782.772Zm5.717-1.7-.926-2.624c.771-.309,1.7-.622,2.626-1.083l1.08,2.782Zm5.41-2.162-1.235-2.626,2.626-1.237,1.236,2.626Zm5.254-2.626-1.392-2.628,2.472-1.39,1.548,2.471Zm5.1-3.091-1.548-2.472,2.319-1.548,1.7,2.473Zm4.79-3.245-1.545-2.319,2.319-1.7,1.7,2.472Zm4.791-3.091-1.543-2.473L646.7,282.9l1.548,2.472Zm4.946-3.094-1.548-2.471,2.473-1.393,1.548,2.473Zm4.947-2.778-1.393-2.626,2.628-1.237,1.235,2.472Zm5.1-2.628-1.234-2.628L662,274.551l1.235,2.628Zm5.1-2.474-1.08-2.626,2.626-1.237,1.08,2.781Zm5.254-2.318L670.031,271l2.782-1.08,1.083,2.623Zm5.408-2.011-1.083-2.782,2.781-.926.929,2.626Zm5.407-2.006L681,266.981l2.781-.929.929,2.626Zm5.41-1.7-.772-2.782,2.781-.772.772,2.781Zm5.563-1.546-.772-2.779,2.781-.774.771,2.782Zm5.564-1.545-.619-2.782,2.782-.617.617,2.782Zm5.563-1.235-.619-2.785,2.936-.617.463,2.782Zm5.719-1.083-.617-2.936,2.936-.463.463,2.782Zm5.563-1.082-.463-2.782,2.936-.463.463,2.779Zm5.719-.775-.463-2.934,2.936-.312.309,2.782Zm5.717-.772-.309-2.781,2.937-.309.154,2.782Zm5.719-.463-.309-2.936,2.937-.309.154,2.936Zm5.718-.463-.154-2.936,2.936-.154.154,2.936Zm5.717-.31-.153-2.936h2.936l.154,2.936Zm5.719-.153v-2.936h2.934v2.936Zm5.717,0,.154-2.782h2.939l-.159,2.936a17.757,17.757,0,0,0-2.935-.154Zm5.873.153V255.7a19.718,19.718,0,0,0,2.939.154l-.16,2.936a16.8,16.8,0,0,0-2.779-.154Zm5.717.31.154-2.936,2.934.154-.309,2.936Zm5.719.463.309-2.936,2.779.309-.309,2.782Zm5.719.463.309-2.781,2.939.309-.469,2.782Zm5.717.772.309-2.934,2.939.463-.467,2.779Zm5.718.775.463-2.782,2.784.463-.469,2.782Zm5.563,1.082.617-2.936,2.785.617-.469,2.782Zm5.719,1.083.617-2.785,2.785.62-.624,2.782Zm5.563,1.235.619-2.782,2.939.773-.778,2.782Zm5.564,1.545.772-2.779,2.779.773-.772,2.781Zm5.563,1.546.773-2.782,2.778.926-.926,2.781Zm5.41,1.7.924-2.628,2.779.926-1.08,2.782Zm5.408,2.006.926-2.782,2.778,1.085-1.08,2.781Zm5.256,2.011L835.08,271l2.625,1.082-1.082,2.781Zm5.254,2.318,1.236-2.626,2.623,1.235-1.235,2.628Zm5.25,2.474,1.24-2.628,2.625,1.39-1.235,2.472Zm5.1,2.628,1.4-2.472,2.471,1.389-1.39,2.473Zm4.947,2.778,1.543-2.471,2.475,1.545-1.543,2.472Zm4.946,3.094,1.543-2.473,2.475,1.7-1.7,2.318Zm4.791,3.245,1.543-2.472,2.322,1.7-1.549,2.319Zm4.793,3.091,1.543-2.319,2.471,1.392-1.543,2.471Zm5.1,3.091,1.39-2.628,2.471,1.39-1.233,2.626Zm5.25,2.626,1.24-2.626,2.471,1.08L881.9,300.2Zm5.41,2.162.93-2.624a18.686,18.686,0,0,0,2.779.772l-.772,2.782Zm5.873,1.7.463-2.936a8.794,8.794,0,0,0,2.784.463l-.309,2.936c-1.082-.154-2.006-.309-2.938-.463Zm5.871.617v-2.936a16.806,16.806,0,0,0,2.784-.154l.31,2.936c-.926,0-2.006.154-3.094.154Zm6.186-.772-.776-2.782c.926-.309,1.7-.617,2.475-.926l1.235,2.628a22.447,22.447,0,0,1-2.934,1.08Zm5.719-2.474-1.549-2.473c.617-.463,1.39-.926,2.168-1.545l1.852,2.165c-.773.617-1.7,1.236-2.471,1.853Zm4.633-3.862-2.008-2.01c.619-.772,1.082-1.389,1.7-2.165l2.322,1.7a15.666,15.666,0,0,1-2.012,2.475Zm3.711-4.945-2.476-1.548c.469-.772.932-1.545,1.4-2.316l2.471,1.234c-.466.927-.928,1.856-1.391,2.629Zm2.778-5.256-2.625-1.236,1.082-2.472,2.629.926Zm.156-6.182-.772-.309v-.309Zm-10.042-7.726-.462-.154v-.154Zm-1.235,2.626,2.779.929c-.31.772-.619,1.852-.926,2.782l-2.785-1.083c.309-.772.617-1.853.932-2.628Zm-1.858,5.256,2.631,1.237c-.463.926-.932,1.7-1.4,2.625l-2.471-1.39c.464-.772.773-1.543,1.236-2.472Zm-2.779,4.791,2.471,1.7A31.444,31.444,0,0,1,904,288.923l-2.012-2.006a7,7,0,0,0,1.7-2.011Zm-3.711,3.4,1.39,2.628a12.792,12.792,0,0,1-3.244.926l-.463-2.782a10.2,10.2,0,0,0,2.316-.772Zm-4.791.772-.309,2.936c-.926-.154-2.008-.309-3.088-.463l.771-2.936a7.213,7.213,0,0,0,2.625.463ZM889.938,288l-.926,2.626c-.925-.309-2.006-.617-2.778-.929l1.082-2.779A13.312,13.312,0,0,0,889.938,288Zm-5.254-2.165-1.235,2.626c-.926-.463-1.853-.926-2.625-1.389l1.389-2.472a18.359,18.359,0,0,1,2.471,1.234Zm-4.941-2.782-1.549,2.628c-.772-.463-1.7-1.08-2.471-1.545l1.543-2.474a12.549,12.549,0,0,0,2.476,1.39Zm-4.945-2.935-1.549,2.472c-.773-.617-1.7-1.08-2.471-1.7l1.7-2.319c.773.463,1.549,1.08,2.322,1.545Zm-4.637-3.245-1.7,2.319-2.322-1.548,1.543-2.471Zm-4.947-3.245L863.67,276.1l-2.475-1.546,1.549-2.472Zm-4.945-2.936-1.543,2.472-2.471-1.392,1.39-2.628Zm-5.1-2.936-1.39,2.626-2.625-1.392,1.39-2.472Zm-5.256-2.628-1.235,2.628-2.625-1.237,1.235-2.625Zm-5.254-2.472-1.236,2.626L840.8,264.2l1.233-2.628Zm-5.41-2.319-1.08,2.782-2.625-1.082,1.08-2.781Zm-5.4-2.006-.932,2.625-2.778-.926.924-2.782Zm-5.41-2.011-.93,2.782-2.779-.926.926-2.781,2.784.924Zm-5.564-1.855-.925,2.782-2.631-.773.771-2.781Zm-5.563-1.7-.772,2.936-2.784-.775.772-2.779Zm-5.717-1.393-.619,2.782-2.784-.772.619-2.782Zm-5.564-1.389-.619,2.782-2.939-.617.619-2.785Zm-5.719-1.237-.617,2.936-2.785-.617.463-2.782Zm-5.719-1.08-.461,2.936-2.939-.463.462-2.936Zm-5.717-.927-.463,2.936-2.783-.466.309-2.778ZM783,245.961l-.309,2.936-2.785-.309.309-2.936Zm-5.719-.617-.309,2.936-2.785-.309.154-2.936Zm-5.872-.463-.154,2.936-2.784-.309.154-2.781Zm-5.718-.463-.153,2.936L762.6,247.2l.154-2.782Zm-5.873-.154V247.2l-2.939-.154v-2.781h2.939Zm-5.717-.156v2.936h-2.939v-2.936Zm-5.873.156v2.781l-2.784.154-.154-2.936h2.938Zm-5.872.154.154,2.782c-.929,0-1.855.154-2.785.154l-.154-2.936Zm-5.719.309.154,2.781-2.939.309-.154-2.936Zm-5.873.309.309,2.936-2.939.309-.153-2.936Zm-5.717.617.309,2.936a19,19,0,0,0-2.939.309l-.309-2.936c.929-.154,2.01-.154,2.939-.309Zm-5.873.775.463,2.778-2.781.466-.466-2.936Zm-5.717.772.463,2.936-2.782.463-.466-2.936Zm-5.719,1.082.617,2.782-2.936.463-.466-2.782Zm-5.717,1.08.617,2.785-2.782.617-.62-2.782Zm-5.719,1.237.772,2.782-2.782.772-.774-2.782Zm-5.563,1.393.771,2.779-2.782.775-.773-2.782Zm-5.564,1.543.772,2.782-2.782.926-.772-2.782Zm-5.563,1.856.772,2.626c-.772.309-1.7.617-2.628.926l-.926-2.628a19.59,19.59,0,0,1,2.782-.925Zm-5.564,1.852.926,2.626-2.628,1.082-1.08-2.779Zm-5.409,2.011,1.08,2.781-2.781.926-1.082-2.628Zm-5.41,2.163,1.082,2.782-2.625,1.08-1.238-2.626Zm-5.409,2.473,1.238,2.625-2.472,1.237-1.393-2.628Zm-5.256,2.471,1.393,2.628-2.628,1.392-1.235-2.626Zm-5.1,2.781,1.39,2.473-2.472,1.546L645,270.533Zm-5.1,2.938,1.545,2.472-2.472,1.546-1.545-2.472Zm-4.946,3.092,1.7,2.471-2.473,1.548-1.548-2.472Zm-4.788,3.245,1.7,2.472-2.472,1.545-1.545-2.473Zm-4.793,3.245,1.545,2.316-2.47,1.546-1.392-2.472Zm-4.791,2.781,1.234,2.628-2.623,1.235-1.239-2.626Zm-5.1,2.474,1.083,2.625a20.462,20.462,0,0,1-2.782,1.083l-.926-2.781c.926-.309,1.7-.619,2.625-.927Zm-5.256,1.7.62,2.782a21.953,21.953,0,0,1-3.091.617l-.154-2.936a8.563,8.563,0,0,0,2.625-.463Zm-5.251.463-.309,2.782a7.859,7.859,0,0,1-3.245-.926l1.236-2.628a13.481,13.481,0,0,0,2.318.772Zm-4.33-2.162-2.009,2.162a27.057,27.057,0,0,1-2.008-2.316l2.319-1.7a9.339,9.339,0,0,0,1.7,1.855Zm-3.244-4.173-2.474,1.392c-.463-.929-.926-1.7-1.389-2.628l2.626-1.237c.463.774.773,1.7,1.236,2.473Zm-2.165-5.1-2.782.929c-.309-.774-.617-1.855-.926-2.782l2.782-.772c.309.926.617,1.7.926,2.625Z" transform="translate(-571.308 -33.009)" fill="#123562"/>
        <path id="Path_51" data-name="Path 51" d="M766.139,270.067c.932.309,2.012.463,2.939.772l-.309.463-2.631-1.235Zm5.719,1.389a22.091,22.091,0,0,0,3.092.617l-1.235,2.01-2.475-1.39Zm11.9.773a8.866,8.866,0,0,0,2.168-.773l1.234.773-1.545,2.472-2.475-1.545Zm4.945-2.319c.926-.617,1.7-1.235,2.476-1.852l.772.463-1.7,2.319Zm46.67-.926,2.631.926a14.835,14.835,0,0,1-.926,2.785l-2.631-.929q.463-1.391.926-2.782Zm-2.006,5.254,2.623,1.235q-.692,1.393-1.389,2.785l-2.471-1.392a20.224,20.224,0,0,0,1.236-2.628Zm-2.625,4.947,2.315,1.545A9.375,9.375,0,0,1,831.2,283.2l-2.168-1.855a11.991,11.991,0,0,0,1.7-2.162Zm-3.558,4.017,1.853,2.165a10.127,10.127,0,0,1-2.625,1.853l-1.39-2.471a10.952,10.952,0,0,0,2.162-1.548Zm-4.481,2.626.926,2.782a21.9,21.9,0,0,1-3.088.617l-.463-2.782c.924-.309,1.7-.309,2.625-.617Zm-5.256.619-.154,2.936a18.969,18.969,0,0,1-2.934-.309l.463-2.782a14.992,14.992,0,0,0,2.625.154Zm-5.408-.773-.619,2.782a16.172,16.172,0,0,1-2.934-.773l.926-2.782a16.744,16.744,0,0,0,2.626.773Zm-5.256-1.855L805.7,286.6a21.882,21.882,0,0,0-2.779-1.235l1.39-2.628c.772.309,1.7.772,2.469,1.08Zm-5.094-2.319-1.4,2.475-2.471-1.392,1.39-2.473Zm-4.947-2.934-1.549,2.471-2.471-1.543,1.7-2.473Zm-4.791-3.094-1.545,2.473-2.475-1.7,1.7-2.319Zm-15.764,0L777.729,273l2.475,1.545-1.543,2.472Zm4.946,3.094,1.543-2.473,2.475,1.7-1.7,2.318Zm4.791,3.245,1.543-2.472,2.322,1.7-1.549,2.319Zm4.793,3.091,1.543-2.319,2.471,1.392-1.543,2.471Zm5.1,3.091,1.39-2.628,2.471,1.39-1.233,2.626Zm5.25,2.626,1.24-2.626,2.471,1.08-1.082,2.782Zm5.41,2.162.93-2.624a18.666,18.666,0,0,0,2.779.772l-.772,2.782Zm5.873,1.7.463-2.936a8.793,8.793,0,0,0,2.784.463l-.309,2.936c-1.082-.154-2.006-.309-2.938-.463Zm5.871.617v-2.936a16.793,16.793,0,0,0,2.784-.154l.31,2.936c-.926,0-2.006.154-3.094.154Zm6.186-.772-.776-2.782c.926-.309,1.7-.617,2.475-.926l1.235,2.628a22.428,22.428,0,0,1-2.934,1.08Zm5.719-2.473-1.549-2.473c.617-.463,1.39-.926,2.168-1.545L832.593,290c-.773.617-1.7,1.236-2.471,1.853Zm4.633-3.862-2.008-2.011c.619-.772,1.082-1.389,1.7-2.165l2.322,1.7a15.668,15.668,0,0,1-2.012,2.475Zm3.711-4.946-2.476-1.548c.469-.772.932-1.545,1.4-2.316l2.471,1.235c-.466.927-.928,1.856-1.39,2.629Zm2.778-5.256-2.625-1.236,1.082-2.472,2.629.926Zm.156-6.182-.772-.309v-.309Zm-10.042-7.726-.462-.154v-.154Zm-1.235,2.626,2.779.929c-.31.772-.619,1.852-.926,2.782l-2.785-1.083c.309-.772.617-1.853.932-2.628Zm-1.858,5.256L830.9,273c-.463.926-.931,1.7-1.4,2.625l-2.471-1.39c.464-.772.773-1.543,1.236-2.472Zm-2.779,4.791,2.471,1.7a31.5,31.5,0,0,1-2.162,2.316l-2.012-2.006a7,7,0,0,0,1.7-2.011Zm-3.711,3.4,1.39,2.628a12.789,12.789,0,0,1-3.244.926l-.463-2.782a10.2,10.2,0,0,0,2.316-.772Zm-4.791.772-.309,2.936c-.926-.154-2.008-.309-3.088-.463l.772-2.936a7.212,7.212,0,0,0,2.625.463Zm-5.256-1.08-.926,2.626c-.924-.309-2.006-.617-2.778-.929l1.082-2.779a13.3,13.3,0,0,0,2.622,1.082Zm-5.254-2.165-1.234,2.626c-.926-.463-1.853-.926-2.625-1.389L804,276.248a18.358,18.358,0,0,1,2.471,1.235Zm-4.941-2.782-1.549,2.628c-.772-.463-1.7-1.08-2.471-1.545l1.543-2.473a12.555,12.555,0,0,0,2.476,1.39Zm-4.946-2.935-1.549,2.472c-.773-.617-1.7-1.08-2.471-1.7l1.7-2.319c.773.463,1.549,1.08,2.322,1.545Z" transform="translate(-493.097 -24.659)" fill="#123562"/>
        <path id="Path_52" data-name="Path 52" d="M597.165,318.365l2.782-.309.309,2.936-2.936.309Zm300.73,2.474-2.779-.309.309-2.936,2.784.309Zm.621-5.873-2.939-.154.309-2.936,2.939.309Zm.463-5.717-2.939-.154.309-2.936,2.784.154Zm.464-5.873-2.939-.154.153-2.782,2.939.154Zm.307-5.717-2.939-.154.154-2.936,2.784.154v2.936Zm.156-5.873h-2.939l.153-2.936,2.939.154Zm.153-5.719H897.12v-2.936h2.939Zm0-5.873H897.12v-2.782l2.939-.154Zm0-5.717H897.12v-2.936h2.785Zm-.153-5.871-2.939.154-.154-2.936,2.939-.154Zm-.31-5.719-2.939.154a17.93,17.93,0,0,0-.153-2.936l2.939-.154c0,.926.153,1.855.153,2.936Zm-.309-5.873-2.939.154-.309-2.782,2.939-.309Zm-.617-5.719-2.784.154-.309-2.782,2.784-.309Zm-.617-5.871-2.785.309-.463-2.781,2.939-.463Zm-.777-5.717-2.779.309-.463-2.782,2.935-.463Zm-.772-5.719-2.934.463-.463-2.936,2.778-.463Zm-1.082-5.719-2.933.463-.463-2.782,2.778-.617Zm-1.234-5.717-2.785.617-.772-2.782,2.785-.772Zm-1.39-5.719-2.783.774-.772-2.784,2.783-.773Zm-1.7-5.563-2.625.775-.926-2.628,2.779-.929Zm-1.7-5.564-2.778.929-.932-2.628,2.631-1.083Zm-2.161-5.563-2.63,1.083-1.08-2.628,2.625-1.083Zm-2.167-5.407-2.623,1.236-1.236-2.473,2.625-1.389Zm-2.624-5.254-2.476,1.39-1.389-2.473,2.475-1.389Zm-2.785-5.1-2.471,1.545-1.544-2.471,2.47-1.546Zm-3.244-4.946-2.321,1.7-1.7-2.319,2.475-1.855Zm-3.4-4.791L870.7,176.5l-1.7-2.165,2.168-2.008Zm-3.7-4.481-2.168,2.01-2.006-2.165L867.3,168Zm-4.174-4.171L863.129,168l-2.012-1.853,1.852-2.163Zm-4.33-3.865-1.853,2.165-2.321-1.855,1.858-2.162Zm-4.637-3.708-1.7,2.163-2.316-1.7,1.853-2.319Zm-4.477-3.554-1.858,2.316-2.162-1.853,1.7-2.319Zm-4.638-3.557-1.7,2.319-2.471-1.545,1.7-2.472Zm-4.79-3.245-1.7,2.319-2.32-1.7,1.545-2.319Zm-4.793-3.4-1.7,2.472-2.322-1.546L835,143.12Zm-4.946-3.091-1.545,2.473L828.51,142.5l1.543-2.475a21.275,21.275,0,0,0,2.472,1.546Zm-4.945-2.935-1.545,2.472-2.471-1.546,1.39-2.471Zm-5.1-2.936-1.4,2.472-2.471-1.389,1.39-2.476Zm-5.1-2.782-1.4,2.473-2.471-1.239,1.235-2.624Zm-5.1-2.782-1.4,2.628-2.471-1.235,1.235-2.628Zm-5.254-2.472-1.235,2.626-2.631-1.235,1.235-2.626Zm-5.256-2.471-1.234,2.625-2.631-1.08,1.236-2.628Zm-5.408-2.319-1.08,2.628-2.631-1.083,1.08-2.628Zm-5.409-2.163-1.082,2.628-2.631-.929,1.087-2.779Zm-5.41-2.01-.926,2.626-2.785-.926.932-2.782Zm-5.41-2.009-.926,2.785q-1.387-.467-2.778-.929l.926-2.781a14.766,14.766,0,0,0,2.778.925Zm-5.563-1.7-.926,2.628-2.784-.774.93-2.779Zm-5.564-1.7-.772,2.782-2.779-.772.619-2.782Zm-5.717-1.545-.619,2.782-2.778-.617.617-2.785Zm-5.564-1.392-.617,2.936-2.779-.617.463-2.936Zm-5.717-1.08-.619,2.782-2.778-.463.463-2.782c.926.153,1.852.307,2.933.463Zm-6.181-.464.309,2.936a20.8,20.8,0,0,0-2.779.463l-.466-2.936c.929-.154,2.01-.309,2.936-.463Zm-5.873,1.082.619,2.782c-.926.154-1.853.463-2.779.617l-.62-2.782c.929-.154,1.855-.463,2.781-.617Zm-5.717,1.235.774,2.939-2.782.617-.775-2.781Zm-5.563,1.548.775,2.782-2.782.772-.772-2.782Zm-5.564,1.546.775,2.779-2.782.774-.772-2.782Zm-5.563,1.7.929,2.782-2.782.929-.926-2.785Zm-5.561,1.855.926,2.782-2.626.926-1.082-2.626Zm-5.41,2.009.926,2.779-2.626,1.083-1.08-2.781Zm-5.409,2.162,1.08,2.782a13.454,13.454,0,0,0-2.627,1.083l-1.236-2.782Zm-5.409,2.319L697,126.893l-2.631,1.08-1.235-2.625Zm-5.256,2.318,1.237,2.626-2.628,1.236-1.237-2.628Zm-5.256,2.473,1.239,2.628-2.628,1.389-1.238-2.626ZM680,131.686l1.391,2.623-2.628,1.393-1.235-2.628Zm-5.1,2.782,1.389,2.626-2.472,1.39-1.39-2.628Zm-5.1,2.935,1.545,2.471-2.471,1.393-1.548-2.472Zm-4.946,2.936,1.547,2.472-2.473,1.545-1.543-2.473Zm-4.943,3.091,1.543,2.472-2.319,1.545-1.7-2.474Zm-4.793,3.245,1.546,2.319-2.318,1.7-1.7-2.472Zm-4.791,3.245,1.7,2.319-2.472,1.7-1.7-2.318Zm-4.79,3.4,1.853,2.318-2.316,1.856-1.855-2.319Zm-4.637,3.554,1.856,2.319-2.319,1.7-1.7-2.165Zm-4.483,3.709,1.855,2.162-2.163,1.855-1.852-2.163Zm-4.48,3.71,2.01,2.165-2.165,2.006-2.011-2.162Zm-4.171,4.171,2.006,1.856-1.852,2.165-2.163-1.856Zm-4.02,4.328,2.319,1.853-1.856,2.165-2.315-1.7Zm-3.554,4.637,2.318,1.7-1.546,2.319-2.472-1.548Zm-3.246,4.944,2.471,1.546-1.545,2.316-2.472-1.389Zm-2.935,5.1,2.472,1.237-1.237,2.625-2.626-1.39Zm-2.628,5.1,2.474,1.235-1.083,2.628-2.628-1.082Zm-2.473,5.408,2.628,1.08-1.08,2.628-2.629-1.08Zm-2.163,5.407,2.782.929L608.6,207.1l-2.782-.926Zm-1.853,5.563,2.779.929-.926,2.628-2.781-.775Zm-1.7,5.564,2.782.774-.772,2.782-2.782-.775Zm-1.548,5.563,2.782.772-.619,2.785-2.782-.62ZM600.41,225.8l2.782.617-.463,2.785-2.936-.466Zm-1.08,5.717,2.779.617-.463,2.785-2.936-.466Zm-1.084,5.719,2.936.463-.463,2.939-2.781-.466Zm-.772,5.871,2.936.309-.463,2.781-2.782-.309Zm-.617,5.719,2.782.309-.309,2.782-2.782-.154Zm-.62,5.717,2.939.309-.309,2.936-2.785-.309Zm-.463,5.873,2.936.154-.154,2.936-2.937-.154Zm-.309,5.873H598.4l-.154,2.936-2.781-.154v-2.782Zm-.154,5.719,2.936.154-.154,2.782h-2.782Zm-.156,5.871h2.936v2.782h-2.936Zm0,5.717h2.936v2.936h-2.782Zm.156,5.873,2.936-.154v2.936l-2.781.154Zm.154,5.719H598.4l.154,2.782-2.937.154Zm.309,5.873,2.936-.154.157,2.782-2.939.309Zm.309,5.717,2.939-.154.154,2.936-2.782.154Zm.466,5.871,2.936-.309.154,2.936-2.782.154Z" transform="translate(-566.437 -91.041)" fill="#123562"/>
      </g>
      <g id="UC_Irvine_Anteaters_logo" transform="translate(135.95 76.763)">
        <path id="Path_130" data-name="Path 130" d="M13.332,0V9.97h5.2V28.618a47.98,47.98,0,0,0-5.357,2.307C4.808,35.265,0,41.521,0,48.167S4.808,61.07,13.175,65.41a39.435,39.435,0,0,0,5.357,2.306v7.351c0,13.371,10.439,22.676,25.413,22.676h4.066c14.974,0,25.413-9.344,25.413-22.676V69.319a60.911,60.911,0,0,0,17.358-6.451l-6.8-9.188c-.078.039-.117.078-.2.117a47.163,47.163,0,0,1-10.321,3.832V38.745a47.162,47.162,0,0,1,10.321,3.832c.235.117.43.235.664.352l6.842-9.149a59.516,59.516,0,0,0-17.828-6.725V9.971h5.2V0H56.885v9.97h5.2V25.257q-4.985-.528-10.439-.7V22.286h5.239V12.356H35.109v9.931h5.238v2.268a93.993,93.993,0,0,0-10.439,1.094V9.971h5.2V0H13.331ZM51.647,35.891c3.831.156,7.311.43,10.439.782V59.661c-3.128.391-6.608.665-10.439.782Zm-11.3.078V60.4a77.531,77.531,0,0,1-10.439-1.29V37.22A71.381,71.381,0,0,1,40.348,35.969ZM18.532,41.012V55.439c-.039-.078-.079-.117-.157-.117-4.848-2.5-7.037-5.4-7.037-7.116,0-1.759,2.189-4.653,7.037-7.116.039-.039.117-.039.157-.078ZM29.87,70.647a85.5,85.5,0,0,0,10.438,1.1v2.307h-5.2v9.97H56.886v-9.97H51.647V71.82q5.513-.176,10.439-.7v3.949c0,5.474-3.714,11.338-14.075,11.338H43.945c-10.361,0-14.075-5.864-14.075-11.338V70.647Z" transform="translate(0)" fill="#ffc72c"/>
        <path id="Path_131" data-name="Path 131" d="M18.533,4.6v6.334h5.2V30.716A54.871,54.871,0,0,1,31,28.878V10.973h5.2V4.6H18.533Zm43.554,0v6.334h5.239V28.253q3.812.469,7.272,1.173V10.973h5.2V4.6ZM40.31,16.954v6.334h5.239v55.4H40.31v6.334H58.021V78.688H52.782v-55.4h5.239V16.954H40.31Zm14.5,12.433v7.272c16.147.547,26.195,3.48,32.411,6.569l4.418-5.9c-8.875-4.77-21.229-7.429-36.829-7.937Zm-11.3.039c-10.439.547-19.431,2.62-26.195,6.139-7.7,3.949-12.12,9.578-12.12,15.4s4.418,11.455,12.081,15.4c6.764,3.48,15.756,5.591,26.195,6.139V65.237h.039c-21.112-1.173-31-8.914-31-14.27s9.891-13.058,31-14.27V29.425Zm23.81,10.283V62.189c2.7-.391,5.083-.821,7.272-1.329V41.038c-2.189-.508-4.574-.938-7.272-1.329ZM31,40.49a46.986,46.986,0,0,0-7.272,2.346v16.3A45.63,45.63,0,0,0,31,61.485ZM86.757,58.944c-6.255,3.05-16.225,5.826-31.942,6.373v7.272c15.326-.508,27.524-3.088,36.36-7.7l-4.418-5.943ZM23.772,71.259v6.646c0,12.159,9.618,20.643,23.38,20.643h4.066c13.762,0,23.379-8.484,23.379-20.643V72.55c-2.346.43-4.731.821-7.272,1.134v4.183c0,9.852-8.679,13.371-16.107,13.371H47.152c-11.885,0-16.107-7.194-16.107-13.371V73.1a70.481,70.481,0,0,1-7.273-1.838Z" transform="translate(-3.168 -2.801)" fill="#0c2340"/>
      </g>
    </g>
    <g id="lenses">
      <path id="lens1" d="M50.03,9.057c28.319,0,45.782,9.718,45.782,36.613S78.35,88.286,50.03,88.286,8.182,72.564,8.182,45.67,21.711,9.057,50.03,9.057Z" transform="translate(825.401 424.652)" fill="#fff" opacity="0.048"/>
      <path id="lens1-2" data-name="lens1" d="M50.03,9.057c28.319,0,45.782,9.718,45.782,36.613S78.35,88.286,50.03,88.286,8.182,72.564,8.182,45.67,21.711,9.057,50.03,9.057Z" transform="translate(981.401 425.652)" fill="#fff" opacity="0.048"/>
    </g>
    <g id="Glasses" transform="translate(817.641 417.74)">
      <g id="Path_160" data-name="Path 160" transform="translate(163.359 1.23)" fill="none">
        <path d="M49,10.781c27.062,0,49,11.6,49,39.219s-21.938,50-49,50S0,77.614,0,50,21.938,10.781,49,10.781Z" stroke="none"/>
        <path d="M 49 18.78124237060547 C 33.68779754638672 18.78124237060547 8 22.83704376220703 8 50.00000381469727 C 8 73.15888977050781 26.39251708984375 92.00000762939453 49 92.00000762939453 C 71.60748291015625 92.00000762939453 90 73.15888977050781 90 50.00000381469727 C 90 22.83704376220703 64.31219482421875 18.78124237060547 49 18.78124237060547 M 49 10.78124237060547 C 76.06193542480469 10.78124237060547 98 22.38576507568359 98 50.00000381469727 C 98 77.61422729492188 76.06193542480469 100.0000076293945 49 100.0000076293945 C 21.93804168701172 100.0000076293945 0 77.61422729492188 0 50.00000381469727 C 0 22.38576507568359 21.93804168701172 10.78124237060547 49 10.78124237060547 Z" stroke="none" fill="#101010"/>
      </g>
      <g id="Path_162" data-name="Path 162" transform="translate(11.359 1.23)" fill="none">
        <path d="M49,10.781c27.062,0,49,11.6,49,39.219s-21.938,50-49,50S0,77.614,0,50,21.938,10.781,49,10.781Z" stroke="none"/>
        <path d="M 49 18.78124237060547 C 33.68779754638672 18.78124237060547 8 22.83704376220703 8 50.00000381469727 C 8 73.15888977050781 26.39251708984375 92.00000762939453 49 92.00000762939453 C 71.60748291015625 92.00000762939453 90 73.15888977050781 90 50.00000381469727 C 90 22.83704376220703 64.31219482421875 18.78124237060547 49 18.78124237060547 M 49 10.78124237060547 C 76.06193542480469 10.78124237060547 98 22.38576507568359 98 50.00000381469727 C 98 77.61422729492188 76.06193542480469 100.0000076293945 49 100.0000076293945 C 21.93804168701172 100.0000076293945 0 77.61422729492188 0 50.00000381469727 C 0 22.38576507568359 21.93804168701172 10.78124237060547 49 10.78124237060547 Z" stroke="none" fill="#101010"/>
      </g>
      <path id="Path_161" data-name="Path 161" d="M0-.008S15.463-9.531,30.961-9.531,61.992-.008,61.992-.008" transform="translate(105.075 51.56)" fill="none" stroke="#101010" stroke-width="8"/>
      <line id="Line_7" data-name="Line 7" x1="11.248" transform="translate(260.885 51.552)" fill="none" stroke="#101010" stroke-width="8"/>
      <line id="Line_8" data-name="Line 8" x1="11.248" transform="translate(1 51.552)" fill="none" stroke="#101010" stroke-width="8"/>
    </g>
  </g>
</svg>
